<?xml version="1.0" encoding="UTF-8" standalone="no"?> <svg xmlns:inkscape="http://www.inkscape.org/namespaces/inkscape" xmlns:sodipodi="http://sodipodi.sourceforge.net/DTD/sodipodi-0.dtd" xmlns="http://www.w3.org/2000/svg" xmlns:svg="http://www.w3.org/2000/svg" version="1.1" width="28.799999pt" height="28.799999pt" id="svg8" viewBox="0 0 28.799999 28.799999" sodipodi:docname="favicon.cdr"><defs id="defs12"></defs><path d="m 17.7163,-40.3495 a 51.1461,51.1461 0 0 1 51.146,51.1461 51.1461,51.1461 0 1 1 -51.146,-51.1461 z" style="fill:#ffffff;fill-rule:evenodd;stroke:#ffffff;stroke-width:0.5669;stroke-linecap:butt;stroke-linejoin:miter;stroke-dasharray:none" id="path2"></path><path d="m 17.9818,51.36 c 4.9459,-2.5457 11.8578,-7.0321 14.1817,-9.0495 4.1553,-3.6864 7.4068,-6.5518 7.4068,-13.2441 L 39.5713,7.4206 17.9818,23.4893 -3.5999,7.4206 v 21.6458 c 0,6.6921 3.2346,9.5493 7.7466,13.2441 2.2312,1.975 9.092,6.4613 13.8351,9.0495 z" style="fill:#6a6d6f;fill-rule:evenodd" id="path4"></path><path d="m -11.0664,-19.8931 c 9.1943,-0.675 17.6478,6.4353 17.5969,19.8521 7e-4,12.1924 0,-3.4938 0,8.4442 L -3.5999,0.863 c 0,-9.7256 -5e-4,0.3728 -5e-4,-0.5601 0.0695,-12.9946 -3.2009,-18.0941 -7.466,-20.196 z M 12.4652,12.8216 V -3.3741 c -0.0096,-8.7191 -3.5425,-23.5754 -12.4557,-27.0992 13.0764,-1.2811 23.4621,12.5289 23.5133,25.424 4e-4,17.2775 -0.0425,1.4812 -0.0256,17.8742 l -5.5154,4.1034 z M 29.5418,8.3205 c 0,-1.6796 0,-6.8139 0,-8.0331 -0.0078,-7.9461 0.7828,-17.1573 -5.6018,-21.4643 9.6205,1.008 15.7239,9.1969 15.6303,21.2949 l 10e-4,0.745 z" style="fill:#e65b11;fill-rule:evenodd" id="path6"></path></svg> 