<?xml version="1.0" encoding="UTF-8"?> <svg xmlns="http://www.w3.org/2000/svg" width="156" height="33" viewBox="0 0 156 33" fill="none"><g clip-path="url(#clip0_6475_1337)"><path fill-rule="evenodd" clip-rule="evenodd" d="M11.8105 32.8723C13.8382 31.8309 15.7701 30.617 17.5842 29.2444C19.275 27.7716 20.5979 26.613 20.5979 23.9277V15.2383L11.8204 21.689L3.04297 15.2383V23.9277C3.04297 26.613 4.36084 27.7569 6.1959 29.2444C7.96708 30.5986 9.84452 31.8118 11.8105 32.8723Z" fill="white"></path><path fill-rule="evenodd" clip-rule="evenodd" d="M16.5106 15.6016V12.3762C16.5106 9.19014 16.8288 5.50329 14.2329 3.76051C18.1467 4.16797 20.6233 7.45227 20.5885 12.3075V12.607L16.5106 15.6016ZM9.54828 17.4082V10.9084C9.54828 7.40808 8.11107 1.44825 4.4857 0.0343848C9.80191 -0.481087 14.024 5.06146 14.0439 10.2358C14.0439 17.1677 14.0439 10.8298 14.0439 17.4082L11.8011 19.0577L9.55823 17.4082H9.54828ZM0 4.27597C1.7356 5.12036 3.06341 7.16753 3.03357 12.3812V12.607L7.15624 15.636V12.2437C7.17613 6.85824 3.73974 4.00596 0 4.27597Z" fill="#D26817"></path><path fill-rule="evenodd" clip-rule="evenodd" d="M19.8423 30.3878C19.6841 30.3863 19.5272 30.4164 19.3811 30.4763C19.2349 30.5362 19.1026 30.6247 18.9919 30.7364C18.7621 30.963 18.6317 31.2698 18.6289 31.5906C18.6284 31.7485 18.6598 31.905 18.7213 32.0508C18.7828 32.1966 18.8731 32.3289 18.987 32.4399C19.0979 32.5532 19.2307 32.6434 19.3777 32.705C19.5247 32.7665 19.6827 32.7983 19.8423 32.7982C20.0045 32.7977 20.165 32.7652 20.3144 32.7029C20.4639 32.6405 20.5992 32.5494 20.7126 32.4349C20.8259 32.3251 20.9153 32.1935 20.9752 32.0483C21.035 31.9031 21.0642 31.7473 21.0607 31.5906C21.0627 31.4321 21.0326 31.2748 20.9721 31.128C20.9115 30.9811 20.8219 30.8477 20.7083 30.7357C20.5948 30.6236 20.4597 30.5351 20.311 30.4753C20.1622 30.4156 20.0029 30.3858 19.8423 30.3878ZM20.9314 31.5955C20.9337 31.7344 20.907 31.8723 20.8531 32.0006C20.7992 32.129 20.7193 32.245 20.6181 32.3417C20.5168 32.4431 20.396 32.5237 20.2628 32.5785C20.1296 32.6333 19.9867 32.6612 19.8423 32.6608C19.7007 32.6613 19.5603 32.6337 19.4297 32.5798C19.299 32.5258 19.1806 32.4465 19.0815 32.3466C18.9794 32.2481 18.8983 32.1305 18.8428 32.0007C18.7872 31.8709 18.7585 31.7315 18.7582 31.5906C18.7626 31.3043 18.8804 31.0312 19.0864 30.8296C19.1845 30.73 19.3021 30.6513 19.4321 30.5981C19.5621 30.5449 19.7017 30.5184 19.8423 30.5203C19.9857 30.519 20.1279 30.5459 20.2607 30.5995C20.3934 30.6531 20.514 30.7322 20.6154 30.8323C20.7168 30.9324 20.797 31.0515 20.8512 31.1825C20.9055 31.3135 20.9328 31.4539 20.9314 31.5955ZM19.8821 30.8787C20.27 30.8787 20.4391 31.0162 20.4391 31.2862C20.4476 31.3764 20.4201 31.4663 20.3625 31.5369C20.305 31.6074 20.2219 31.6531 20.1308 31.6642L20.4441 32.2631H20.2004L19.902 31.6937H19.5738V32.2631H19.36V30.8787H19.8821ZM19.8374 31.0358C20.1159 31.0358 20.2402 31.1144 20.2402 31.296C20.2402 31.4777 20.1159 31.5415 19.8374 31.5415H19.5738V31.0506L19.8374 31.0358Z" fill="white"></path><path fill-rule="evenodd" clip-rule="evenodd" d="M42.8787 12.4744C43.56 10.3389 44.5397 7.92847 45.216 5.78804C45.332 5.37539 45.5889 5.01503 45.9433 4.76807C46.2977 4.52112 46.7278 4.40276 47.1605 4.43308H51.1389C50.7772 5.02351 50.6039 5.70777 50.6416 6.39678V18.2821H46.8571V7.52592L43.1024 18.2624H40.79L37.1994 7.52592V18.2624H35.2102V6.37714C35.2442 5.68848 35.0712 5.00526 34.7129 4.41344H38.567C39.0013 4.3781 39.4343 4.49439 39.7906 4.74202C40.1469 4.98965 40.4038 5.3529 40.5165 5.76839L42.8787 12.4744Z" fill="white"></path><path fill-rule="evenodd" clip-rule="evenodd" d="M121.521 7.85938V14.8796C121.478 15.3008 121.559 15.7254 121.755 16.102C121.878 16.2196 122.027 16.308 122.19 16.3607C122.353 16.4134 122.525 16.429 122.695 16.4064H125.246C125.584 16.4064 125.798 16.3229 125.883 16.1658C126.015 15.7756 126.067 15.3635 126.037 14.9532V10.3238C126.048 9.80087 126.024 9.27778 125.967 8.75776C125.921 8.44435 125.821 8.14078 125.674 7.85938H129.309V18.2621C129.309 19.563 129.309 21.0162 128.111 21.728C127.874 21.8658 127.609 21.9512 127.335 21.9784C127.052 22.0078 126.39 22.0471 125.346 22.0471H118.881L118.538 19.7447C118.798 19.92 119.09 20.0435 119.398 20.108C119.874 20.1751 120.355 20.203 120.835 20.1914H125.052C125.465 20.1914 125.729 20.108 125.848 19.9411C126.009 19.6062 126.074 19.2346 126.037 18.8659V17.619C125.91 17.8436 125.708 18.0173 125.465 18.1099C125.112 18.2155 124.744 18.2619 124.376 18.2474H121.392C120.864 18.2685 120.336 18.2021 119.831 18.051C119.465 17.8646 119.146 17.5984 118.9 17.2727C118.654 16.9469 118.485 16.5701 118.408 16.1707C118.3 15.555 118.255 14.9299 118.274 14.3052V9.82308C118.318 9.14951 118.195 8.4755 117.916 7.85938H121.521Z" fill="white"></path><path fill-rule="evenodd" clip-rule="evenodd" d="M69.0949 18.2621V9.81816H66.6383C66.3213 9.80989 66.0044 9.83624 65.6934 9.89671C65.4589 9.96068 65.2394 10.0691 65.0469 10.2158L65.3602 7.85938H76.3009L76.6142 10.2158C76.42 10.0688 76.1988 9.96044 75.9628 9.89671C75.6518 9.83571 75.3348 9.80936 75.0179 9.81816H72.5661V16.2984C72.5266 16.9876 72.7 17.6723 73.0634 18.2621H69.0949Z" fill="white"></path><path fill-rule="evenodd" clip-rule="evenodd" d="M145.244 18.2621V9.73961C145.28 9.09991 145.182 8.45963 144.955 7.85938H153.205L153.534 10.2845C153.34 10.1384 153.121 10.0285 152.887 9.96053C152.576 9.90198 152.259 9.87729 151.942 9.8869H148.541V16.2984C148.501 16.9876 148.675 17.6723 149.038 18.2621H145.244Z" fill="white"></path><path fill-rule="evenodd" clip-rule="evenodd" d="M152.027 16.4954H152.719V18.2628H152.992V16.4954H153.678V16.2549H152.027V16.4954ZM156.006 18.2628V16.2549H155.613L155.036 17.384L154.454 16.2745H154.061V18.2824H154.345C154.345 17.7178 154.345 17.1582 154.345 16.5985L154.937 17.6933H155.17L155.762 16.5936C155.762 17.1533 155.762 17.7178 155.762 18.2824L156.006 18.2628Z" fill="white"></path><path fill-rule="evenodd" clip-rule="evenodd" d="M115.693 18.2622V10.3289C115.681 9.80438 115.703 9.27969 115.758 8.75789C115.807 8.44497 115.906 8.14174 116.051 7.8595H107.403C106.95 7.84593 106.498 7.89888 106.06 8.0166C105.739 8.11499 105.449 8.29435 105.22 8.53698C104.965 8.80065 104.785 9.12566 104.698 9.47955C104.593 10.0627 104.55 10.6549 104.568 11.2469V15.7339C104.583 16.1208 104.566 16.5082 104.519 16.8925C104.448 17.3936 104.242 17.8667 103.922 18.2622H106.757C107.512 18.2622 107.9 17.5062 107.91 16.7894V11.0014C107.91 10.0932 108.189 9.70047 108.85 9.70047H112.401V15.783C112.413 16.3059 112.391 16.8289 112.336 17.3491C112.287 17.662 112.188 17.9652 112.043 18.2475L115.693 18.2622Z" fill="white"></path><path fill-rule="evenodd" clip-rule="evenodd" d="M64.0422 14.0107H57.1396V12.7785C57.1348 12.6911 57.1492 12.6037 57.182 12.5223C57.2148 12.441 57.2651 12.3677 57.3294 12.3074C57.3938 12.2472 57.4706 12.2015 57.5546 12.1735C57.6386 12.1455 57.7278 12.1358 57.8159 12.1452H60.7998V10.7902C60.7998 10.1029 60.7998 9.70528 60.1234 9.70528H56.8711C56.0754 9.70528 56.0455 9.97037 56.0455 10.8099V15.1055C55.9987 15.4713 56.0889 15.8414 56.2992 16.1462C56.6142 16.3525 56.9927 16.4429 57.3684 16.4015H62.0779C62.7398 16.4358 63.3978 16.2807 63.9726 15.9548L63.6593 18.2572H55.9958C53.7629 18.2572 52.7832 17.457 52.7832 14.9975V11.1241C52.7832 8.83144 53.6435 7.85449 55.6875 7.85449H61.317C63.4305 7.85449 64.0422 8.83634 64.0422 11.0602V14.0107Z" fill="white"></path><path fill-rule="evenodd" clip-rule="evenodd" d="M78.1266 7.85943H85.7155C86.1691 7.84095 86.623 7.88725 87.0632 7.99688C87.3889 8.11635 87.6807 8.31172 87.9136 8.56636C88.1813 8.84684 88.3899 9.17699 88.5273 9.53768C88.6648 9.89836 88.7283 10.2824 88.7142 10.6675V18.2621H80.2053C79.7875 18.2749 79.3698 18.2354 78.9621 18.1443C78.6716 18.0641 78.4042 17.9179 78.1813 17.7172C77.934 17.4831 77.7509 17.1909 77.6492 16.8679C77.528 16.4466 77.4711 16.0098 77.4801 15.5719V13.78C77.459 13.4756 77.4991 13.1701 77.5981 12.8811C77.6971 12.5921 77.853 12.3253 78.057 12.0961C78.2859 11.8953 78.5539 11.7425 78.8446 11.6471C79.1353 11.5518 79.4426 11.5158 79.7478 11.5414H83.6367C83.7259 11.5345 83.8156 11.5461 83.8999 11.5755C83.9843 11.6049 84.0615 11.6513 84.1266 11.7119C84.1917 11.7724 84.2432 11.8458 84.2779 11.9271C84.3126 12.0085 84.3296 12.0962 84.328 12.1845V13.3971H81.8116C81.6666 13.3806 81.5198 13.3957 81.3814 13.4416C81.243 13.4874 81.1165 13.5627 81.011 13.6622C80.8324 13.9575 80.7556 14.302 80.7922 14.644V15.2724C80.7538 15.5803 80.8317 15.8914 81.011 16.1462C81.1165 16.2457 81.243 16.321 81.3814 16.3668C81.5198 16.4127 81.6666 16.4278 81.8116 16.4113H85.4221C85.4221 14.3936 85.4221 12.4397 85.4221 10.427C85.4221 9.9753 85.1336 9.72004 84.6164 9.72004H79.703C79.0506 9.69578 78.4048 9.8577 77.8431 10.1864L78.1266 7.85943Z" fill="white"></path><path fill-rule="evenodd" clip-rule="evenodd" d="M131.797 21.7084V7.85938H140.186C142.012 7.85938 142.981 8.7774 142.981 10.7067V15.5522C142.981 16.9808 142.255 18.267 140.649 18.2621H137.058C136.941 18.2683 136.824 18.2503 136.714 18.2093C136.604 18.1683 136.504 18.1051 136.42 18.0238C136.337 17.9425 136.271 17.8449 136.227 17.7371C136.184 17.6294 136.164 17.5139 136.168 17.3981V16.4162H138.709C139.6 16.4162 139.704 15.8909 139.704 15.1251V10.8884C139.704 10.152 139.634 9.72489 138.779 9.72489H135.094C135.094 12.9012 135.094 16.4947 135.094 19.671C135.047 20.3718 135.17 21.0736 135.452 21.7182L131.797 21.7084Z" fill="white"></path><path fill-rule="evenodd" clip-rule="evenodd" d="M102.092 18.2622V10.3289C102.08 9.80438 102.102 9.27969 102.157 8.75789C102.206 8.44497 102.305 8.14174 102.45 7.8595H93.9062C93.4532 7.84593 93.0007 7.89888 92.5635 8.0166C92.2433 8.11721 91.9542 8.29623 91.723 8.53698C91.463 8.79897 91.2777 9.12413 91.186 9.47955C91.0835 10.0629 91.0418 10.6551 91.0616 11.2469V15.7339C91.0735 16.1208 91.0569 16.508 91.0119 16.8925C90.9369 17.3934 90.7293 17.8659 90.4102 18.2622H93.1951C93.951 18.2622 94.3389 17.5062 94.3488 16.7894V11.0014C94.3488 10.0932 94.6273 9.70047 95.2887 9.70047H98.8395V15.783C98.8512 16.3059 98.8296 16.8289 98.7749 17.3491C98.7259 17.662 98.6268 17.9652 98.4814 18.2475L102.092 18.2622Z" fill="white"></path><path fill-rule="evenodd" clip-rule="evenodd" d="M35.2344 25.7293H35.8013V24.2565H36.5373C36.6507 24.2562 36.7638 24.2463 36.8755 24.227C36.9932 24.2115 37.1075 24.1767 37.2137 24.1239C37.3291 24.0716 37.4323 23.9964 37.517 23.903C37.578 23.8382 37.6299 23.7656 37.6712 23.687C37.7132 23.6039 37.7466 23.5167 37.7706 23.4268C37.795 23.3305 37.8067 23.2315 37.8054 23.1323C37.8063 22.9846 37.7794 22.8381 37.7259 22.7003C37.6749 22.5793 37.6006 22.4692 37.5071 22.3762C37.4145 22.2817 37.3049 22.2052 37.1838 22.1504C37.0756 22.1029 36.9621 22.0683 36.8456 22.0473C36.7398 22.0381 36.6333 22.0381 36.5274 22.0473H35.2344V25.7293ZM35.8013 22.5579H36.5423C36.5985 22.5531 36.6551 22.5531 36.7114 22.5579C36.7692 22.5639 36.826 22.5771 36.8805 22.5972C36.9417 22.6231 36.9986 22.6579 37.0495 22.7003C37.1177 22.7499 37.1695 22.8182 37.1987 22.8966C37.2297 22.9713 37.2449 23.0515 37.2435 23.1323C37.244 23.2193 37.2288 23.3057 37.1987 23.3875C37.1694 23.4623 37.1254 23.5307 37.0694 23.5888C37.0192 23.6405 36.9581 23.6807 36.8904 23.7066C36.8315 23.732 36.7697 23.7501 36.7064 23.7606H36.5423H35.8013V22.5382V22.5579ZM38.442 25.7293H39.0238L39.2974 24.9192H40.7594L41.033 25.7293H41.6148L40.2771 22.0522H39.7798L38.442 25.7293ZM39.4366 24.443L40.0035 22.7935L40.5605 24.4479L39.4366 24.443ZM45.081 23.0734C45.0652 22.9615 45.0334 22.8524 44.9866 22.7493C44.9508 22.6595 44.9023 22.5752 44.8423 22.499C44.7923 22.4329 44.7357 22.3721 44.6732 22.3173C44.5877 22.2415 44.4924 22.1771 44.3898 22.1259C44.2929 22.0791 44.1912 22.0429 44.0864 22.0179C43.9837 21.9946 43.8785 21.983 43.7731 21.9835C43.6628 21.9829 43.5527 21.9945 43.4449 22.0179C43.3327 22.044 43.2241 22.0836 43.1217 22.1357C43.0114 22.194 42.9108 22.2685 42.8233 22.3566C42.7432 22.4371 42.6746 22.5279 42.6194 22.6266C42.5716 22.714 42.5332 22.8062 42.505 22.9015C42.4797 22.9881 42.4631 23.0769 42.4553 23.1666C42.4508 23.2451 42.4508 23.3238 42.4553 23.4023V24.3841C42.4553 24.4332 42.4553 24.497 42.4553 24.5756C42.4646 24.6616 42.4795 24.7468 42.5 24.8309C42.5264 24.9292 42.5631 25.0247 42.6094 25.1156C42.6631 25.2198 42.7318 25.3157 42.8133 25.4003C42.9704 25.5704 43.1744 25.6915 43.4001 25.7489C43.5228 25.7847 43.6501 25.8029 43.7781 25.8029C43.9479 25.8038 44.1165 25.7738 44.2754 25.7145C44.4195 25.6597 44.5526 25.5799 44.6683 25.4789C44.7325 25.4208 44.7908 25.3567 44.8423 25.2874C44.9646 25.1161 45.0462 24.9198 45.081 24.713H44.5141C44.497 24.7764 44.472 24.8374 44.4395 24.8947C44.3994 24.961 44.3509 25.022 44.2953 25.0763C44.255 25.1125 44.2117 25.1453 44.166 25.1745C44.1134 25.2067 44.0565 25.2315 43.9969 25.2482C43.8522 25.2893 43.6986 25.288 43.5546 25.2444C43.4107 25.2008 43.2827 25.1168 43.1863 25.0027C43.1344 24.9397 43.094 24.8683 43.0669 24.7916C43.041 24.7203 43.0242 24.6461 43.0172 24.5707C43.0125 24.502 43.0125 24.4331 43.0172 24.3645V23.4416C43.0121 23.3615 43.0121 23.2811 43.0172 23.201C43.0324 23.0442 43.0948 22.8955 43.1962 22.7739C43.2673 22.6968 43.3536 22.635 43.4499 22.5922C43.5508 22.5509 43.6589 22.5292 43.7681 22.5284C43.8442 22.5267 43.92 22.5383 43.9919 22.5628C44.0568 22.5799 44.1188 22.6064 44.1759 22.6413C44.2264 22.6738 44.2731 22.7117 44.3152 22.7543C44.3599 22.7998 44.3984 22.851 44.4296 22.9064C44.465 22.9646 44.4917 23.0274 44.5091 23.093L45.081 23.0734ZM45.9314 22.0522V23.2157C45.9314 23.2845 45.9314 23.363 45.9314 23.4514C45.9395 23.5375 45.9545 23.6229 45.9762 23.7066C46.0011 23.793 46.0379 23.8756 46.0856 23.9521C46.1391 24.0378 46.2102 24.1114 46.2945 24.1681C46.3625 24.2173 46.438 24.2554 46.5182 24.281C46.6025 24.307 46.6891 24.3251 46.7768 24.335C46.8646 24.3396 46.9526 24.3396 47.0404 24.335H47.9207V25.7293H48.4826V22.0522H47.9207V23.8588H47.1399C47.0557 23.8557 46.9722 23.8425 46.8912 23.8196C46.8138 23.8034 46.7419 23.7679 46.6824 23.7165C46.6309 23.669 46.5917 23.6101 46.568 23.5446C46.5476 23.4825 46.5342 23.4182 46.5282 23.3532C46.5282 23.2893 46.5282 23.2304 46.5282 23.1764V22.0522H45.9314ZM49.9099 22.0522V25.7293H52.292V25.2383H50.4768V24.1583H52.0284V23.6674H50.4768V22.5873H52.292V22.0964L49.9099 22.0522ZM54.6542 22.5432H55.6836V22.0522H53.0877V22.5432H54.0823V25.7293H54.6442V22.5382L54.6542 22.5432ZM56.6434 22.0522V25.7293H57.2054V24.1436H58.7321V25.7293H59.294V22.0522H58.7321V23.6379H57.2203V22.0522H56.6434ZM60.224 25.7293H60.8009L61.0794 24.9192H62.5365L62.8398 25.7293H63.4167L62.0839 22.0522H61.5866L60.2389 25.7293H60.224ZM61.2186 24.443L61.7806 22.7935L62.3376 24.4479L61.2186 24.443ZM67.1018 22.0522H65.7441C65.6431 22.0454 65.5418 22.0454 65.4408 22.0522C65.3295 22.0644 65.2206 22.0925 65.1175 22.1357C65.0032 22.1859 64.8988 22.2557 64.8092 22.3419C64.7115 22.4335 64.6336 22.5437 64.5804 22.6659C64.5291 22.8025 64.5038 22.9473 64.5058 23.093C64.504 23.1894 64.5174 23.2854 64.5456 23.3777C64.5786 23.4758 64.6291 23.5673 64.6948 23.6477C64.7531 23.7135 64.82 23.7713 64.8937 23.8196C64.9775 23.8705 65.0678 23.9101 65.1623 23.9374C65.0929 23.9601 65.0275 23.9933 64.9683 24.0356C64.9085 24.0694 64.8575 24.1165 64.8191 24.173C64.7668 24.241 64.7311 24.3199 64.7147 24.4038C64.688 24.5002 64.6696 24.5988 64.66 24.6983L64.6252 24.9438C64.6293 24.9879 64.6293 25.0322 64.6252 25.0763C64.6271 25.0992 64.6271 25.1222 64.6252 25.1451V25.1745C64.6022 25.2027 64.5709 25.2233 64.5357 25.2334C64.5043 25.2375 64.4725 25.2375 64.4412 25.2334H64.3318L64.3914 25.7243H64.5904H64.7644C64.8235 25.7135 64.8806 25.6937 64.9335 25.6654C64.9884 25.6331 65.0372 25.5916 65.0777 25.5427C65.112 25.4981 65.1388 25.4484 65.1573 25.3954C65.1768 25.3411 65.1918 25.2853 65.202 25.2285C65.202 25.1696 65.202 25.1205 65.2269 25.0714L65.2766 24.6099C65.2766 24.5707 65.2766 24.5216 65.3015 24.4676C65.3158 24.4157 65.3375 24.3661 65.3662 24.3203C65.4027 24.2697 65.4503 24.2277 65.5054 24.1976C65.5808 24.1656 65.662 24.1489 65.7441 24.1485H66.5647V25.7293H67.1316V22.0522H67.1018ZM66.5348 22.5432V23.6576H65.7391H65.575C65.524 23.6497 65.474 23.6365 65.4258 23.6183C65.3853 23.6036 65.3468 23.5838 65.3115 23.5594C65.2731 23.5403 65.2392 23.5135 65.212 23.4808C65.1649 23.4346 65.1277 23.3795 65.1026 23.3188C65.0798 23.2524 65.068 23.1828 65.0678 23.1126C65.0663 23.0408 65.0781 22.9692 65.1026 22.9015C65.1282 22.833 65.169 22.7709 65.2219 22.7199C65.2668 22.6791 65.3169 22.6444 65.3711 22.6168C65.4218 22.5938 65.4753 22.5773 65.5303 22.5677C65.5849 22.5628 65.6398 22.5628 65.6944 22.5677L66.5348 22.5432ZM70.7371 22.0522V25.7293H71.304V24.1436H72.8257V25.7293H73.3877V22.0522H72.8257V23.6379H71.304V22.0522H70.7371ZM74.8199 22.0522V25.7293H77.2617V25.2383H75.4217V24.1583H76.9733V23.6674H75.4217V22.5873H77.2617V22.0964L74.8199 22.0522ZM78.3409 22.0522V25.7293H79.7483C79.836 25.7362 79.9241 25.7362 80.0118 25.7293C80.1126 25.7104 80.211 25.6808 80.3052 25.6409C80.4133 25.5912 80.5138 25.5268 80.6036 25.4494C80.6861 25.3754 80.7566 25.2893 80.8125 25.1941C80.8594 25.1091 80.8945 25.0183 80.9169 24.9241C80.9321 24.8415 80.9404 24.7577 80.9418 24.6738C80.9432 24.5654 80.9264 24.4576 80.8921 24.3547C80.8622 24.2591 80.8187 24.1681 80.7628 24.0847C80.7103 24.0029 80.6448 23.9299 80.5688 23.8687C80.478 23.7902 80.3736 23.7286 80.2605 23.687C80.1599 23.6487 80.0545 23.6239 79.9472 23.6134C79.8545 23.6067 79.7614 23.6067 79.6687 23.6134H78.9327V22.5382H80.7429V22.0473L78.3409 22.0522ZM78.9078 24.0798H79.7383C79.8027 24.0719 79.8678 24.0719 79.9323 24.0798C79.9847 24.0941 80.035 24.1156 80.0815 24.1436C80.1214 24.1647 80.1582 24.1911 80.1909 24.2221C80.242 24.2783 80.2824 24.3432 80.3102 24.4136C80.3398 24.4819 80.355 24.5553 80.355 24.6296C80.3541 24.7037 80.3389 24.7771 80.3102 24.8456C80.2812 24.9139 80.2409 24.9769 80.1909 25.0322C80.1582 25.0631 80.1214 25.0895 80.0815 25.1107C80.036 25.1407 79.9855 25.1623 79.9323 25.1745C79.868 25.1847 79.8026 25.1847 79.7383 25.1745H78.9078V24.0601V24.0798ZM81.7375 25.7293H82.3193L82.5978 24.9192H84.0549L84.3284 25.7293H84.9103L83.5775 22.0522H83.0802L81.7723 25.7293H81.7375ZM82.757 24.443L83.3189 22.7935L83.8809 24.4479L82.757 24.443ZM85.8403 22.0522V25.7293H86.4022V24.1436H87.924V25.7293H88.4909V22.0522H87.924V23.6379H86.4022V22.0522H85.8403ZM90.0823 22.0522V25.7293H90.689V24.0896H91.3504C91.4327 24.0875 91.5145 24.1043 91.5891 24.1387C91.6449 24.1657 91.6928 24.2062 91.7284 24.2565C91.7567 24.3036 91.7769 24.355 91.788 24.4087C91.7999 24.4555 91.8082 24.503 91.8129 24.551L91.8825 25.096C91.8825 25.1451 91.8825 25.1991 91.9074 25.2531C91.917 25.3084 91.932 25.3626 91.9522 25.4151C91.9716 25.4691 91.9984 25.5203 92.0317 25.5672C92.0713 25.6169 92.1203 25.6586 92.1759 25.69C92.2285 25.719 92.2857 25.7389 92.345 25.7489C92.4029 25.7536 92.4612 25.7536 92.5191 25.7489H92.718L92.7777 25.258H92.6782C92.6469 25.2621 92.6151 25.2621 92.5837 25.258C92.5485 25.2478 92.5172 25.2273 92.4942 25.199C92.4837 25.1874 92.4753 25.1742 92.4693 25.1598C92.4674 25.1369 92.4674 25.1139 92.4693 25.0911C92.4654 25.0502 92.4654 25.0091 92.4693 24.9683L92.4097 24.5559C92.4097 24.5019 92.4097 24.443 92.3798 24.3841C92.3702 24.3208 92.3552 24.2584 92.3351 24.1976C92.3119 24.1396 92.2836 24.0837 92.2505 24.0306L92.1809 23.9521C92.1455 23.9236 92.1072 23.899 92.0665 23.8785C92.0209 23.851 91.9702 23.8326 91.9173 23.8245C91.9519 23.8174 91.9853 23.8059 92.0168 23.7901L92.1163 23.7312C92.1464 23.7088 92.1732 23.6824 92.1958 23.6527C92.2197 23.6207 92.2397 23.5861 92.2555 23.5495C92.2701 23.5129 92.2817 23.4751 92.2903 23.4366C92.2903 23.3974 92.2903 23.3581 92.3152 23.3286C92.3167 23.3025 92.3167 23.2763 92.3152 23.2501L92.345 22.9408C92.3526 22.8682 92.3643 22.7961 92.3798 22.7248C92.3946 22.6664 92.4236 22.6125 92.4644 22.5677C92.5106 22.5262 92.571 22.5034 92.6335 22.5039H92.718L92.6583 22.0129H92.4296C92.3365 22.0155 92.245 22.0372 92.161 22.0768C92.0953 22.1122 92.0377 22.1607 91.9919 22.2191C91.9523 22.2762 91.9221 22.3392 91.9024 22.4057C91.8828 22.4733 91.8678 22.5422 91.8577 22.6119C91.8577 22.6806 91.8577 22.7493 91.8328 22.8082L91.788 23.1764C91.788 23.2157 91.788 23.2599 91.7632 23.3041C91.7537 23.3522 91.7333 23.3975 91.7035 23.4366C91.6729 23.4821 91.6298 23.5178 91.5792 23.5397C91.5081 23.5677 91.4319 23.5811 91.3554 23.579H90.689V22.0473L90.0823 22.0522ZM96.4975 23.3728C96.5018 23.3009 96.5018 23.2288 96.4975 23.1568C96.4828 22.9644 96.4233 22.7779 96.3235 22.6119C96.2657 22.5137 96.1936 22.4244 96.1096 22.3468C96.03 22.279 95.9433 22.2198 95.851 22.17C95.7485 22.1169 95.64 22.0757 95.5278 22.0473C95.3055 21.982 95.0687 21.982 94.8465 22.0473C94.7343 22.0757 94.6258 22.1169 94.5232 22.17C94.431 22.2198 94.3443 22.279 94.2646 22.3468C94.1806 22.4244 94.1086 22.5137 94.0508 22.6119C93.951 22.7779 93.8914 22.9644 93.8767 23.1568C93.8724 23.2288 93.8724 23.3009 93.8767 23.3728V24.4087C93.8723 24.4806 93.8723 24.5527 93.8767 24.6247C93.8914 24.8171 93.951 25.0036 94.0508 25.1696C94.1086 25.2678 94.1806 25.3571 94.2646 25.4347C94.343 25.5041 94.4298 25.5635 94.5232 25.6114C94.6258 25.6646 94.7343 25.7058 94.8465 25.7342C95.0687 25.7995 95.3055 25.7995 95.5278 25.7342C95.64 25.7058 95.7485 25.6646 95.851 25.6114C95.9444 25.5635 96.0313 25.5041 96.1096 25.4347C96.1936 25.3571 96.2657 25.2678 96.3235 25.1696C96.4233 25.0036 96.4828 24.8171 96.4975 24.6247C96.502 24.5527 96.502 24.4806 96.4975 24.4087V23.3728ZM95.9306 24.443C95.9399 24.5049 95.9399 24.5677 95.9306 24.6296C95.92 24.7006 95.8999 24.7699 95.8709 24.8358C95.8344 24.909 95.7875 24.9768 95.7317 25.0371C95.6826 25.0849 95.6275 25.1261 95.5676 25.1598C95.5084 25.1894 95.4469 25.214 95.3836 25.2334C95.3175 25.2406 95.2508 25.2406 95.1846 25.2334C95.0843 25.2335 94.9848 25.2152 94.8912 25.1794C94.8053 25.1445 94.7275 25.0927 94.6625 25.0272C94.6023 24.9702 94.5519 24.9039 94.5133 24.8309C94.4791 24.7662 94.4555 24.6966 94.4436 24.6247C94.4388 24.556 94.4388 24.4871 94.4436 24.4185V23.3139C94.4388 23.2453 94.4388 23.1763 94.4436 23.1077C94.4555 23.0357 94.4791 22.9661 94.5133 22.9015C94.5519 22.8285 94.6023 22.7622 94.6625 22.7052C94.7265 22.6397 94.8047 22.5893 94.8912 22.5579C94.9845 22.5204 95.084 22.5004 95.1846 22.499C95.2517 22.4999 95.3184 22.5081 95.3836 22.5235C95.4469 22.5429 95.5084 22.5676 95.5676 22.5972C95.6275 22.6308 95.6826 22.6721 95.7317 22.7199C95.7875 22.7801 95.8344 22.8479 95.8709 22.9212C95.8999 22.987 95.92 23.0563 95.9306 23.1274C95.9399 23.1892 95.9399 23.2521 95.9306 23.3139V24.4185V24.443ZM97.8005 22.0522V25.7293H99.188C99.3065 25.7293 99.4248 25.7178 99.541 25.6949C99.6333 25.6744 99.7233 25.6448 99.8096 25.6065C99.8743 25.5745 99.9359 25.5367 99.9936 25.4936L100.113 25.3905C100.167 25.3269 100.213 25.2578 100.252 25.1843C100.292 25.1079 100.322 25.0272 100.342 24.9438C100.361 24.8601 100.371 24.7744 100.372 24.6885C100.376 24.6248 100.376 24.5608 100.372 24.497C100.36 24.4315 100.342 24.3673 100.317 24.3056C100.292 24.2426 100.258 24.1832 100.217 24.1288C100.19 24.0909 100.158 24.0563 100.123 24.0258C100.082 23.9864 100.037 23.9518 99.9886 23.9227C99.9316 23.8922 99.8716 23.8676 99.8096 23.849C99.9296 23.804 100.038 23.7337 100.128 23.6428L100.197 23.5495C100.232 23.4927 100.259 23.4317 100.277 23.3679C100.3 23.3043 100.317 23.2385 100.327 23.1715C100.332 23.1111 100.332 23.0503 100.327 22.9899C100.328 22.8911 100.312 22.7929 100.277 22.7003C100.25 22.6184 100.212 22.5407 100.163 22.4695C100.117 22.4058 100.062 22.3495 99.9986 22.3026C99.929 22.2506 99.854 22.2062 99.7748 22.17C99.6879 22.1358 99.598 22.1095 99.5062 22.0915C99.4119 22.0842 99.3171 22.0842 99.2228 22.0915L97.8005 22.0522ZM98.3624 22.5432H99.178C99.2508 22.5426 99.3231 22.5542 99.3919 22.5775C99.4609 22.5973 99.5252 22.6307 99.5808 22.6757C99.6454 22.7215 99.6955 22.7845 99.7251 22.8574C99.7519 22.9261 99.7637 22.9997 99.7599 23.0734C99.7611 23.1432 99.7511 23.2128 99.73 23.2795C99.7048 23.3414 99.6657 23.3968 99.6156 23.4416C99.5616 23.4969 99.4952 23.5389 99.4217 23.5643C99.3548 23.5884 99.284 23.6 99.2128 23.5986H98.3972V22.5382L98.3624 22.5432ZM98.3624 24.1043H99.2079C99.2425 24.0998 99.2776 24.0998 99.3123 24.1043C99.3633 24.1093 99.4135 24.1208 99.4615 24.1387C99.5164 24.1596 99.5682 24.1877 99.6156 24.2221C99.652 24.2499 99.6839 24.283 99.7101 24.3203C99.7431 24.3625 99.7668 24.4109 99.7798 24.4627C99.8009 24.5243 99.811 24.5891 99.8096 24.6541C99.8112 24.7254 99.7958 24.796 99.7648 24.8603C99.7383 24.9176 99.7031 24.9706 99.6604 25.0174L99.5609 25.1009C99.5131 25.1321 99.4613 25.1569 99.4068 25.1745C99.3375 25.1952 99.2653 25.2052 99.1929 25.204H98.3972V24.0994L98.3624 24.1043ZM104.236 23.0586C104.217 22.9473 104.186 22.8385 104.141 22.7346C104.102 22.6455 104.052 22.5614 103.992 22.4842C103.944 22.4169 103.887 22.3559 103.823 22.3026C103.737 22.2268 103.642 22.1624 103.539 22.1111C103.443 22.0636 103.341 22.0274 103.236 22.0031C103.133 21.9796 103.028 21.9681 102.923 21.9688C102.814 21.9683 102.706 21.9798 102.599 22.0031C102.487 22.0285 102.378 22.0681 102.276 22.121C102.166 22.1792 102.065 22.2537 101.978 22.3419C101.898 22.4223 101.829 22.5132 101.774 22.6119C101.725 22.6993 101.685 22.7914 101.655 22.8868C101.632 22.9739 101.615 23.0625 101.605 23.1519C101.6 23.2304 101.6 23.3091 101.605 23.3875V24.3694C101.601 24.4331 101.601 24.4971 101.605 24.5609C101.612 24.6471 101.627 24.7326 101.65 24.8161C101.674 24.9152 101.71 25.0109 101.759 25.1009C101.811 25.206 101.88 25.3022 101.963 25.3856C102.12 25.5557 102.324 25.6768 102.55 25.7342C102.671 25.7696 102.796 25.7878 102.923 25.7882C103.093 25.7899 103.261 25.7599 103.42 25.6998C103.565 25.6462 103.698 25.5662 103.813 25.4642C103.877 25.4061 103.935 25.342 103.987 25.2727C104.046 25.1935 104.097 25.1079 104.136 25.0174C104.179 24.9148 104.211 24.8078 104.231 24.6983H103.659C103.641 24.7609 103.618 24.8217 103.589 24.88C103.549 24.9474 103.498 25.0086 103.44 25.0616C103.401 25.0979 103.36 25.1307 103.316 25.1598C103.263 25.1911 103.206 25.2158 103.147 25.2334C103.072 25.2544 102.995 25.2644 102.918 25.2629C102.804 25.262 102.691 25.2351 102.59 25.1843C102.49 25.14 102.403 25.0726 102.336 24.988C102.284 24.9239 102.242 24.8528 102.212 24.7769C102.188 24.705 102.171 24.631 102.162 24.5559C102.162 24.4823 102.162 24.4136 102.162 24.3498V23.4268C102.157 23.3467 102.157 23.2664 102.162 23.1863C102.172 23.1109 102.19 23.0368 102.217 22.9653C102.249 22.8908 102.293 22.8214 102.346 22.7592C102.416 22.6811 102.503 22.6191 102.599 22.5775C102.699 22.5366 102.805 22.515 102.913 22.5137C102.99 22.512 103.068 22.5236 103.142 22.5481C103.205 22.5652 103.265 22.5917 103.321 22.6266C103.373 22.659 103.421 22.6969 103.465 22.7395C103.552 22.8374 103.617 22.9531 103.654 23.0782L104.236 23.0586ZM105.429 22.0375V25.7293H105.991V24.0896H106.653C106.735 24.0875 106.817 24.1043 106.891 24.1387C106.946 24.1659 106.992 24.2064 107.026 24.2565C107.056 24.3032 107.077 24.3547 107.09 24.4087C107.102 24.4555 107.11 24.503 107.115 24.551L107.185 25.096C107.185 25.1451 107.185 25.1991 107.21 25.2531C107.22 25.3077 107.233 25.3618 107.249 25.4151C107.271 25.4693 107.299 25.5204 107.334 25.5672C107.373 25.6169 107.422 25.6586 107.478 25.69C107.531 25.719 107.588 25.7389 107.647 25.7489C107.703 25.7533 107.76 25.7533 107.816 25.7489H108.02L108.08 25.258H108.005C107.974 25.2621 107.942 25.2621 107.911 25.258C107.874 25.2491 107.84 25.2284 107.816 25.199C107.814 25.186 107.814 25.1728 107.816 25.1598C107.814 25.1369 107.814 25.1139 107.816 25.0911C107.816 25.0616 107.816 25.0174 107.791 24.9683L107.737 24.5559L107.707 24.3841C107.698 24.3202 107.681 24.2576 107.657 24.1976C107.638 24.1389 107.611 24.0828 107.578 24.0306L107.503 23.9521C107.47 23.9226 107.433 23.8978 107.394 23.8785C107.348 23.851 107.297 23.8326 107.244 23.8245C107.279 23.8165 107.312 23.805 107.344 23.7901L107.443 23.7312C107.472 23.7075 107.499 23.6812 107.523 23.6527C107.545 23.6206 107.563 23.5859 107.578 23.5495C107.594 23.513 107.607 23.4753 107.617 23.4366C107.617 23.3974 107.617 23.3581 107.642 23.3286C107.667 23.2992 107.642 23.2697 107.642 23.2501L107.672 22.9408C107.68 22.8682 107.691 22.7961 107.707 22.7248C107.722 22.6664 107.751 22.6125 107.791 22.5677C107.838 22.5262 107.898 22.5034 107.96 22.5039H108.045L107.985 22.0129H107.757C107.663 22.0155 107.572 22.0372 107.488 22.0768C107.421 22.111 107.364 22.1597 107.319 22.2191C107.279 22.2762 107.249 22.3392 107.229 22.4057C107.207 22.4727 107.192 22.5418 107.185 22.6119C107.185 22.6806 107.185 22.7493 107.16 22.8082L107.115 23.1764C107.115 23.2157 107.115 23.2599 107.09 23.3041C107.078 23.3514 107.058 23.3963 107.03 23.4366C107 23.4821 106.957 23.5178 106.906 23.5397C106.835 23.5672 106.759 23.5806 106.682 23.579H106.021V22.0473L105.429 22.0375ZM108.766 25.7145H109.348L109.621 24.9045H111.084L111.357 25.7145H111.939L110.601 22.0375H110.104L108.801 25.7293L108.766 25.7145ZM109.786 24.4283L110.382 22.7837L110.944 24.4381L109.786 24.4283ZM115.664 22.0375H114.311C114.21 22.0305 114.109 22.0305 114.008 22.0375C113.896 22.0497 113.788 22.0778 113.684 22.121C113.568 22.1694 113.461 22.2394 113.371 22.3271C113.274 22.4178 113.197 22.5283 113.147 22.6511C113.094 22.7874 113.067 22.9323 113.068 23.0782C113.068 23.1749 113.083 23.2709 113.113 23.363C113.146 23.4611 113.196 23.5525 113.262 23.633C113.319 23.7 113.386 23.758 113.461 23.8048C113.544 23.8567 113.634 23.8964 113.729 23.9227C113.659 23.9464 113.592 23.9794 113.53 24.0208C113.473 24.0575 113.422 24.104 113.381 24.1583C113.333 24.2285 113.297 24.3066 113.277 24.389C113.252 24.486 113.234 24.5844 113.222 24.6836L113.192 24.929C113.192 24.983 113.192 25.0272 113.167 25.0616C113.17 25.0845 113.17 25.1075 113.167 25.1303V25.1598C113.144 25.188 113.113 25.2086 113.078 25.2187C113.046 25.2224 113.015 25.2224 112.983 25.2187H112.909L112.963 25.7096H113.167H113.336C113.396 25.6997 113.453 25.6797 113.505 25.6507C113.562 25.621 113.612 25.5791 113.65 25.528C113.687 25.4847 113.716 25.4347 113.734 25.3807C113.754 25.3264 113.769 25.2705 113.779 25.2138C113.779 25.1549 113.779 25.1058 113.779 25.0567L113.834 24.5952C113.834 24.5559 113.834 24.5069 113.858 24.4529C113.873 24.401 113.895 24.3513 113.923 24.3056C113.957 24.254 114.003 24.2118 114.057 24.1828C114.133 24.1508 114.214 24.1341 114.296 24.1338H115.122V25.7293H115.684V22.0522L115.664 22.0375ZM115.102 22.5284V23.6428H114.306C114.251 23.6481 114.197 23.6481 114.142 23.6428C114.089 23.635 114.038 23.6218 113.988 23.6035C113.948 23.5878 113.909 23.5681 113.873 23.5446C113.837 23.5255 113.804 23.4987 113.779 23.4661C113.732 23.4198 113.695 23.3648 113.67 23.3041C113.644 23.2383 113.632 23.1682 113.635 23.0979C113.633 23.026 113.645 22.9545 113.67 22.8868C113.695 22.8182 113.736 22.7562 113.789 22.7052C113.833 22.6633 113.883 22.6285 113.938 22.6021C113.988 22.5784 114.042 22.5619 114.097 22.553C114.152 22.5481 114.207 22.5481 114.261 22.553L115.102 22.5284ZM35.2344 28.5472V32.2242H35.8013V30.5845H36.4826C36.565 30.5824 36.6467 30.5992 36.7213 30.6336C36.7766 30.6593 36.8232 30.7002 36.8556 30.7514C36.8843 30.7989 36.906 30.8501 36.9202 30.9036C36.9202 30.9576 36.9202 31.0018 36.9202 31.046L36.9899 31.586C36.9899 31.64 36.9899 31.694 37.0147 31.748C37.0209 31.8035 37.0342 31.8579 37.0545 31.91C37.0758 31.9642 37.1042 32.0154 37.1391 32.0622C37.1772 32.1133 37.2265 32.1552 37.2833 32.1849C37.3368 32.2118 37.3936 32.2316 37.4524 32.2438C37.5086 32.2486 37.5652 32.2486 37.6214 32.2438H37.8253L37.88 31.7529H37.8054H37.711C37.6757 31.7428 37.6445 31.7222 37.6214 31.694C37.6178 31.6812 37.6178 31.6676 37.6214 31.6547C37.6192 31.6319 37.6192 31.6088 37.6214 31.586C37.6214 31.5565 37.6214 31.5124 37.6214 31.4633L37.5618 31.0509C37.5618 30.9969 37.5618 30.938 37.5369 30.8741C37.512 30.8103 37.5071 30.7514 37.4872 30.6925C37.4671 30.6332 37.4386 30.577 37.4026 30.5256C37.3825 30.4969 37.3592 30.4705 37.333 30.447C37.3003 30.4161 37.2635 30.3896 37.2236 30.3685C37.1753 30.3468 37.1255 30.3287 37.0744 30.3145C37.1075 30.3057 37.1393 30.2924 37.1689 30.2752C37.2047 30.2604 37.2382 30.2405 37.2684 30.2163C37.2994 30.197 37.3264 30.172 37.3479 30.1427C37.3736 30.1119 37.3937 30.077 37.4076 30.0396C37.4231 30.0011 37.4364 29.9617 37.4474 29.9217C37.4493 29.8858 37.4493 29.8497 37.4474 29.8138C37.4489 29.7876 37.4489 29.7614 37.4474 29.7352L37.4822 29.4259C37.4873 29.3547 37.499 29.284 37.517 29.2148C37.5298 29.1557 37.5591 29.1013 37.6016 29.0577C37.6465 29.0167 37.7045 28.9924 37.7657 28.989H37.8502L37.7955 28.4981H37.5667C37.4721 28.5045 37.3794 28.5278 37.2932 28.5668C37.2279 28.6008 37.1717 28.6496 37.1291 28.7092C37.0859 28.7649 37.0539 28.8282 37.0346 28.8957C37.015 28.9634 37 29.0323 36.9899 29.1019C36.9899 29.1706 36.9899 29.2345 36.9899 29.2983L36.9401 29.6665C36.9444 29.7089 36.9444 29.7517 36.9401 29.7941C36.9306 29.8422 36.9102 29.8875 36.8805 29.9267C36.851 29.9731 36.8075 30.0092 36.7561 30.0298C36.6868 30.0578 36.6122 30.0712 36.5373 30.0691H35.8759V28.5373L35.2344 28.5472ZM39.0288 32.2242H39.5908V30.7809H40.3268C40.4402 30.7806 40.5533 30.7707 40.665 30.7514C40.7818 30.732 40.8955 30.6974 41.0031 30.6483C41.1201 30.5963 41.225 30.5211 41.3115 30.4274C41.3691 30.361 41.4191 30.2886 41.4606 30.2114C41.5048 30.1292 41.5382 30.0417 41.5601 29.9512C41.5856 29.855 41.5989 29.7561 41.5999 29.6567C41.5992 29.5087 41.5705 29.3622 41.5153 29.2246C41.4649 29.1031 41.3925 28.9916 41.3015 28.8957C41.2029 28.8006 41.0863 28.7255 40.9584 28.6748C40.8494 28.6249 40.7339 28.5902 40.6152 28.5717C40.511 28.5627 40.4062 28.5627 40.3019 28.5717H39.0089V32.2488L39.0288 32.2242ZM39.5908 29.0528H40.3318C40.388 29.0481 40.4446 29.0481 40.5008 29.0528C40.56 29.0629 40.6182 29.0777 40.6749 29.097C40.7365 29.1223 40.7935 29.1571 40.844 29.2001C40.9091 29.2507 40.9604 29.3165 40.9932 29.3916C41.0217 29.4669 41.0352 29.5469 41.033 29.6272C41.0343 29.7143 41.0192 29.8009 40.9882 29.8825C40.9601 29.9579 40.916 30.0265 40.8589 30.0838C40.808 30.1337 40.7492 30.1752 40.6848 30.2065C40.6255 30.2306 40.5639 30.2486 40.5008 30.2605H40.3318H39.5908V29.0381V29.0528ZM42.6343 28.5619V32.2389H45.0114V31.748H43.1962V30.6385H44.7528V30.1476H43.1962V29.0675H45.0114V28.5766L42.6343 28.5619ZM48.6915 31.7333V28.5619H46.752V29.2001C46.752 29.3081 46.752 29.4308 46.752 29.5536C46.752 29.6763 46.752 29.8089 46.7172 29.9414C46.6824 30.074 46.6923 30.1967 46.6724 30.3145C46.6525 30.4323 46.6426 30.5354 46.6227 30.6238C46.6028 30.7121 46.563 30.9085 46.5232 31.0362C46.4834 31.1638 46.4337 31.2816 46.384 31.3945C46.3342 31.5074 46.2696 31.6203 46.2049 31.7284H45.8718V33.0146H46.4039V32.2389H48.6666V33.0146H49.1987V31.7186L48.6915 31.7333ZM47.2443 29.0675H48.1246V31.7333H46.7669C46.7669 31.6842 46.8166 31.6351 46.8365 31.586L46.9012 31.4338C46.9354 31.3519 46.9653 31.2684 46.9907 31.1834C47.0156 31.1 47.0404 31.0116 47.0603 30.9233C47.0802 30.8349 47.12 30.6631 47.1399 30.5452C47.1598 30.4274 47.1747 30.3096 47.1846 30.1967C47.1946 30.0838 47.1846 29.9709 47.1846 29.8481C47.1846 29.7254 47.1846 29.6027 47.1846 29.4652V29.0675H47.2443ZM50.1933 28.5766V32.2536H50.7603V31.8315L52.3964 29.7549V32.2095H52.9584V28.5325H52.3964V28.9497L50.7752 31.0018V28.5472L50.1933 28.5766ZM55.4946 29.0675H56.5241V28.5766H53.9281V29.0675H54.9227V32.2389H55.4847V29.0675H55.4946ZM57.4839 28.5766V32.2536H58.0508V30.6385H59.5725V32.2242H60.1345V28.5472H59.5725V30.1476H58.0508V28.5619L57.4839 28.5766ZM61.0645 32.2536H61.6413L61.9198 31.4436H63.3769L63.6554 32.2536H64.2323L62.8995 28.5766H62.4022L61.0694 32.2536H61.0645ZM62.0591 30.9674L62.626 29.3179L63.183 30.9723L62.0591 30.9674Z" fill="white"></path><path fill-rule="evenodd" clip-rule="evenodd" d="M67.928 28.5472H66.5704C66.471 28.5401 66.3713 28.5401 66.272 28.5472C66.1608 28.5628 66.0522 28.5925 65.9487 28.6355C65.832 28.6839 65.7256 28.7539 65.6354 28.8417C65.5378 28.9324 65.4615 29.0429 65.4117 29.1657C65.3553 29.3011 65.3282 29.4465 65.3321 29.5928C65.3327 29.689 65.3461 29.7848 65.3719 29.8776C65.4036 29.9757 65.4562 30.0661 65.526 30.1427C65.5817 30.211 65.649 30.2691 65.7249 30.3145C65.8064 30.3709 65.8973 30.4124 65.9935 30.4372C65.924 30.4613 65.8574 30.4926 65.7946 30.5305C65.7392 30.5699 65.6891 30.6161 65.6454 30.668C65.5969 30.7399 65.5616 30.8196 65.5409 30.9036C65.5166 30.9989 65.4983 31.0957 65.4863 31.1932L65.4564 31.4436C65.4505 31.4866 65.4422 31.5292 65.4315 31.5713C65.4345 31.5957 65.4345 31.6204 65.4315 31.6449V31.6743C65.4085 31.7026 65.3773 31.7231 65.342 31.7333H65.2426H65.168L65.2277 32.2242H65.4315C65.4878 32.2289 65.5444 32.2289 65.6006 32.2242C65.6594 32.2119 65.7162 32.1921 65.7697 32.1653C65.8265 32.1356 65.8758 32.0936 65.9139 32.0425C65.951 31.9972 65.9797 31.9456 65.9985 31.8904C66.0181 31.8377 66.033 31.7835 66.0432 31.7283C66.0432 31.6694 66.0432 31.6154 66.0432 31.5664L66.0979 31.1098C66.1022 31.0617 66.1105 31.0141 66.1228 30.9674C66.1348 30.9132 66.1567 30.8617 66.1875 30.8152C66.2212 30.7652 66.2674 30.7246 66.3217 30.6974C66.3964 30.663 66.4781 30.6462 66.5604 30.6483H67.386V32.2046H67.9479V28.5275L67.928 28.5472ZM67.3661 29.0381V30.1476H66.5654H66.4063L66.2521 30.1083L66.1377 30.0494C66.1013 30.0275 66.0679 30.0011 66.0383 29.9708C65.9906 29.9223 65.9536 29.8645 65.9297 29.8011C65.9057 29.7377 65.8953 29.6702 65.899 29.6027C65.8948 29.5306 65.9066 29.4585 65.9338 29.3916C65.9573 29.322 65.9984 29.2595 66.0532 29.2099C66.0948 29.1654 66.1457 29.1302 66.2024 29.1068C66.2528 29.0831 66.3064 29.0666 66.3615 29.0577C66.416 29.0504 66.4712 29.0504 66.5256 29.0577L67.3661 29.0381ZM74.1891 29.8481C74.1891 29.7892 74.1891 29.7156 74.1891 29.637C74.1771 29.5475 74.1588 29.4589 74.1344 29.3719C74.1035 29.2744 74.0618 29.1806 74.0101 29.0921C73.9523 28.9939 73.8802 28.9046 73.7962 28.827C73.7192 28.756 73.6321 28.6964 73.5376 28.6503C73.4354 28.5964 73.3268 28.5551 73.2144 28.5275C72.9921 28.4622 72.7554 28.4622 72.5331 28.5275C72.4222 28.5551 72.3153 28.5964 72.2148 28.6503C72.1197 28.6953 72.0324 28.7549 71.9562 28.827C71.8707 28.9045 71.7971 28.9938 71.7374 29.0921C71.6851 29.1796 71.6449 29.2738 71.618 29.3719C71.5913 29.4583 71.5729 29.5471 71.5633 29.637C71.5591 29.7073 71.5591 29.7778 71.5633 29.8481V30.8889C71.5591 30.9608 71.5591 31.0329 71.5633 31.1049C71.5729 31.1948 71.5913 31.2835 71.618 31.37C71.6449 31.4681 71.6851 31.5622 71.7374 31.6498C71.7971 31.7481 71.8707 31.8374 71.9562 31.9149C72.0349 31.9838 72.1217 32.0432 72.2148 32.0916C72.3162 32.1435 72.4229 32.1846 72.5331 32.2144C72.7563 32.2733 72.9912 32.2733 73.2144 32.2144C73.3261 32.1846 73.4345 32.1435 73.5376 32.0916C73.6299 32.0419 73.7166 31.9826 73.7962 31.9149C73.8802 31.8373 73.9523 31.748 74.0101 31.6498C74.0618 31.5613 74.1035 31.4675 74.1344 31.37C74.1588 31.283 74.1771 31.1944 74.1891 31.1049C74.1891 31.0214 74.1891 30.9527 74.1891 30.8889V29.8481ZM73.6272 30.9232C73.6315 30.9854 73.6315 31.0477 73.6272 31.1098C73.6133 31.1807 73.5917 31.2498 73.5625 31.316C73.5277 31.3902 73.4807 31.4583 73.4233 31.5172C73.3742 31.565 73.319 31.6063 73.2592 31.64C73.2 31.6695 73.1384 31.6942 73.0751 31.7136C73.0107 31.7209 72.9456 31.7209 72.8812 31.7136C72.779 31.7166 72.6773 31.6982 72.5828 31.6596C72.4969 31.627 72.4189 31.5769 72.3541 31.5124C72.2939 31.4553 72.2435 31.389 72.2048 31.316C72.1728 31.2505 72.1494 31.1812 72.1352 31.1098C72.1304 31.0412 72.1304 30.9722 72.1352 30.9036V29.799C72.1304 29.7304 72.1304 29.6615 72.1352 29.5928C72.1494 29.5214 72.1728 29.4521 72.2048 29.3866C72.2435 29.3136 72.2939 29.2473 72.3541 29.1903C72.42 29.1258 72.4976 29.0742 72.5828 29.0381C72.678 29.0018 72.7792 28.9835 72.8812 28.9841C72.9456 28.9769 73.0107 28.9769 73.0751 28.9841C73.1399 28.9992 73.202 29.0241 73.2592 29.0577C73.319 29.0914 73.3742 29.1327 73.4233 29.1805C73.4807 29.2395 73.5277 29.3075 73.5625 29.3817C73.5931 29.4474 73.6148 29.5167 73.6272 29.5879C73.6317 29.65 73.6317 29.7124 73.6272 29.7745V30.879V30.9232ZM75.4921 32.2095H76.054V30.7661H76.79C76.9034 30.7659 77.0165 30.756 77.1282 30.7367C77.2451 30.7173 77.3588 30.6826 77.4664 30.6336C77.5833 30.5815 77.6883 30.5063 77.7747 30.4127C77.8323 30.3463 77.8823 30.2738 77.9239 30.1967C77.968 30.1144 78.0015 30.027 78.0233 29.9365C78.0488 29.8403 78.0621 29.7413 78.0631 29.6419C78.0624 29.494 78.0338 29.3475 77.9786 29.2099C77.9282 29.0884 77.8557 28.9769 77.7647 28.881C77.6721 28.7879 77.5624 28.7129 77.4415 28.6601C77.3325 28.6101 77.217 28.5754 77.0984 28.557C76.9941 28.548 76.8893 28.548 76.7851 28.557H75.4921V32.234V32.2095ZM76.054 29.0381H76.795C76.8513 29.0333 76.9078 29.0333 76.9641 29.0381C77.0232 29.0482 77.0814 29.063 77.1381 29.0823C77.1997 29.1075 77.2568 29.1423 77.3072 29.1853C77.3723 29.2359 77.4236 29.3017 77.4564 29.3768C77.4825 29.4527 77.4959 29.5323 77.4962 29.6125C77.4976 29.6996 77.4824 29.7862 77.4514 29.8677C77.4233 29.9432 77.3793 30.0118 77.3221 30.069C77.2712 30.119 77.2125 30.1605 77.1481 30.1918C77.0887 30.2158 77.0271 30.2339 76.9641 30.2458H76.795H76.054V29.0234V29.0381ZM79.202 28.5472V32.2242H79.749V29.0528H81.3056V28.5619L79.202 28.5472ZM81.7979 32.2242H82.3748L82.6533 31.4142H84.1104L84.3889 32.2242H84.9657L83.633 28.5472H83.1356L81.8029 32.2242H81.7979ZM82.7925 30.938L83.3545 29.2885L83.9114 30.9429L82.7925 30.938ZM85.8758 28.5472V32.2242H86.4378V30.6385H87.9595V32.2242H88.5264V28.5472H87.9595V30.1476H86.4378V28.5619L85.8758 28.5472ZM90.0134 28.5472V32.2242H90.5753V31.802L92.2015 29.7548V32.2095H92.7635V28.5324H92.2015V28.9497L90.5753 31.0018V28.5472H90.0134ZM94.9865 30.5698H95.3097H95.4738L95.6379 30.614C95.6884 30.6278 95.7357 30.6512 95.7772 30.6827C95.8182 30.7143 95.8535 30.7524 95.8816 30.7956C95.9091 30.8437 95.9308 30.8947 95.9463 30.9478C95.9665 31.0028 95.9766 31.061 95.9761 31.1196C95.9745 31.1884 95.961 31.2565 95.9363 31.3209C95.9046 31.401 95.8564 31.4738 95.7947 31.5346C95.7331 31.5954 95.6594 31.643 95.5782 31.6743C95.4707 31.7163 95.3557 31.7364 95.2401 31.7333C95.1423 31.7381 95.0444 31.7248 94.9516 31.694C94.8606 31.6619 94.7764 31.6137 94.703 31.5516C94.6526 31.5093 94.609 31.4596 94.5737 31.4043C94.5262 31.3337 94.4909 31.2557 94.4693 31.1736H93.9073C93.9184 31.2468 93.935 31.319 93.957 31.3896C93.9896 31.4747 94.0295 31.5568 94.0764 31.6351C94.1333 31.7282 94.2018 31.814 94.2803 31.8904C94.3534 31.9602 94.4334 32.0227 94.519 32.0769C94.6162 32.1328 94.7197 32.1773 94.8273 32.2095C94.9518 32.2442 95.0809 32.2608 95.2102 32.2585C95.3957 32.2615 95.5804 32.235 95.7573 32.18C95.9137 32.1267 96.0588 32.0452 96.185 31.9395C96.2522 31.8775 96.3123 31.8084 96.364 31.7333C96.4198 31.6498 96.4634 31.5588 96.4933 31.4632C96.5245 31.3547 96.5395 31.2422 96.5381 31.1294C96.5385 31.0331 96.5251 30.9373 96.4983 30.8447C96.4739 30.7642 96.437 30.6881 96.3889 30.6189C96.3519 30.5605 96.3067 30.5075 96.2546 30.4618C96.2084 30.4255 96.1584 30.3942 96.1054 30.3685C96.0633 30.3458 96.018 30.3293 95.9711 30.3194C96.0354 30.3 96.0959 30.2701 96.1502 30.231C96.224 30.1786 96.2879 30.1138 96.3391 30.0396C96.3829 29.9676 96.4164 29.8899 96.4386 29.8088C96.4641 29.7061 96.4758 29.6004 96.4734 29.4946C96.4763 29.403 96.4628 29.3116 96.4336 29.2246C96.4083 29.1446 96.3715 29.0685 96.3242 28.9988C96.2809 28.9349 96.2291 28.8771 96.17 28.827C96.1185 28.7786 96.0618 28.7358 96.001 28.6993C95.8958 28.6326 95.7797 28.5845 95.6578 28.557C95.5116 28.52 95.3612 28.5019 95.2102 28.503C95.0493 28.5011 94.8893 28.5277 94.7378 28.5815C94.5883 28.6369 94.4502 28.7183 94.33 28.8221C94.2688 28.8798 94.2123 28.9422 94.1609 29.0086C94.0987 29.0869 94.0469 29.1727 94.0068 29.2639C93.9589 29.3687 93.9255 29.4793 93.9073 29.5928H94.4693C94.477 29.5541 94.4886 29.5163 94.5041 29.4799C94.5192 29.432 94.5428 29.3872 94.5737 29.3474C94.6092 29.2952 94.651 29.2474 94.698 29.205C94.7727 29.1433 94.8588 29.0966 94.9516 29.0675C95.0439 29.0418 95.1393 29.0286 95.2351 29.0282C95.3225 29.0272 95.4097 29.0388 95.4937 29.0626C95.583 29.0855 95.6662 29.1274 95.7374 29.1853C95.7842 29.2254 95.823 29.2737 95.8518 29.3277C95.8741 29.3713 95.8908 29.4175 95.9015 29.4652C95.9015 29.5143 95.9015 29.5536 95.9015 29.5928C95.9063 29.632 95.9063 29.6715 95.9015 29.7106C95.888 29.7527 95.8713 29.7937 95.8518 29.8334C95.8327 29.8715 95.8075 29.9063 95.7772 29.9365C95.7269 29.9882 95.6658 30.0284 95.5981 30.0543C95.5131 30.0889 95.4216 30.1056 95.3296 30.1034H94.9914V30.5943L94.9865 30.5698ZM97.284 32.2242H97.8609L98.1394 31.4142H99.6412L99.9197 32.2242H100.497L99.1439 28.5472H98.6466L97.3139 32.2242H97.284ZM98.2786 30.938L98.8406 29.2885L99.3976 30.9429L98.2786 30.938ZM101.362 32.2242H103.848V32.9998H104.381V31.7185H103.908V28.5472H103.346V31.7185H101.924V28.5472H101.362V32.2242ZM105.624 28.5472V32.2242H106.191V31.802L107.812 29.7548V32.2095H108.379V28.5324H107.812V28.9497L106.191 31.0018V28.5472H105.624ZM112.502 28.5472H111.149C111.048 28.5399 110.947 28.5399 110.846 28.5472C110.735 28.5635 110.626 28.5931 110.522 28.6355C110.406 28.6839 110.299 28.7539 110.209 28.8417C110.111 28.9324 110.035 29.0429 109.985 29.1657C109.931 29.3018 109.904 29.4467 109.906 29.5928C109.906 29.6895 109.921 29.7855 109.95 29.8776C109.982 29.9746 110.033 30.0646 110.1 30.1427C110.155 30.211 110.223 30.2691 110.299 30.3145C110.38 30.3699 110.471 30.4114 110.567 30.4372C110.498 30.4613 110.431 30.4926 110.368 30.5305C110.313 30.5699 110.263 30.6161 110.219 30.668C110.17 30.7399 110.135 30.8196 110.115 30.9036C110.09 30.9989 110.072 31.0957 110.06 31.1932L110.03 31.4436C110.024 31.4866 110.016 31.5292 110.005 31.5713C110 31.5967 109.992 31.6215 109.98 31.6449C109.982 31.6546 109.982 31.6646 109.98 31.6743C109.957 31.7026 109.926 31.7231 109.891 31.7333H109.796H109.722L109.776 32.2242H109.98C110.037 32.2289 110.093 32.2289 110.149 32.2242C110.208 32.2119 110.265 32.1921 110.318 32.1653C110.375 32.1356 110.425 32.0936 110.463 32.0425C110.501 31.9982 110.53 31.9464 110.547 31.8904C110.567 31.8377 110.582 31.7835 110.592 31.7283C110.592 31.6694 110.592 31.6154 110.592 31.5664L110.647 31.1098C110.647 31.0656 110.647 31.0214 110.647 30.9674C110.661 30.9139 110.683 30.8627 110.711 30.8152C110.745 30.7652 110.791 30.7246 110.846 30.6974C110.92 30.663 111.002 30.6462 111.084 30.6483H111.91V32.2046H112.472V28.5275L112.502 28.5472ZM111.94 29.0381V30.1476H111.179H111.02L110.865 30.1083L110.751 30.0494C110.715 30.0286 110.683 30.0021 110.657 29.9708C110.61 29.9246 110.572 29.8695 110.547 29.8088C110.523 29.7428 110.511 29.6729 110.512 29.6027C110.508 29.5306 110.52 29.4585 110.547 29.3916C110.573 29.323 110.614 29.2609 110.667 29.2099C110.709 29.1668 110.76 29.1318 110.816 29.1068C110.866 29.0831 110.92 29.0666 110.975 29.0577C111.029 29.0504 111.085 29.0504 111.139 29.0577L111.94 29.0381Z" fill="white"></path></g><defs><clipPath id="clip0_6475_1337"><rect width="156" height="33" fill="white"></rect></clipPath></defs></svg> 