<?xml version="1.0" encoding="UTF-8"?> <svg xmlns="http://www.w3.org/2000/svg" width="1025" height="220" viewBox="0 0 1025 220" fill="none"><path d="M77.5288 218.589C90.8184 211.652 103.478 203.569 115.363 194.433C126.462 184.64 135.145 176.968 135.145 159.112V101.333L77.5288 144.227L19.9127 101.333V159.112C19.9127 176.968 28.5633 184.574 40.6088 194.433C52.2541 203.453 64.5998 211.531 77.5288 218.589Z" fill="#4B3670"></path><path d="M108.377 103.749V82.3019C108.377 61.0835 110.466 36.6007 93.4262 25.0122C119.117 27.7216 135.373 49.5602 135.145 81.8449V83.8036L108.377 103.716V103.749ZM62.6759 115.762V72.5414C62.6759 49.2664 53.2419 9.60441 29.4446 0.202997C64.3407 -3.06137 92.0552 33.6301 92.1858 68.0693C92.1858 114.162 92.1858 72.0191 92.1858 115.762L77.4635 126.697L62.7412 115.762H62.6759ZM0 28.3093C11.3927 33.924 20.1085 47.5364 19.9127 82.204V83.8036L46.9743 103.912V81.3879C47.1049 45.6105 24.5481 26.6444 0 28.3093Z" fill="#D05D18"></path><path d="M130.248 202.071C128.154 202.039 126.137 202.864 124.666 204.356C123.156 205.876 122.3 207.926 122.283 210.069C122.277 212.191 123.124 214.226 124.634 215.716C126.108 217.231 128.135 218.079 130.248 218.067C132.392 218.057 134.446 217.2 135.961 215.684C137.461 214.205 138.287 212.175 138.246 210.069C138.273 207.94 137.438 205.89 135.933 204.384C134.427 202.879 132.377 202.045 130.248 202.071ZM137.397 210.102C137.423 211.968 136.679 213.762 135.341 215.063C133.989 216.414 132.159 217.177 130.248 217.185C126.333 217.15 123.167 213.984 123.132 210.069C123.161 208.165 123.934 206.349 125.287 205.009C126.587 203.671 128.382 202.927 130.248 202.953C132.15 202.935 133.978 203.683 135.323 205.027C136.667 206.372 137.415 208.2 137.397 210.102ZM130.509 205.336C133.056 205.336 134.166 206.25 134.166 208.012C134.265 209.261 133.381 210.374 132.142 210.559L134.198 214.541H132.599L130.64 210.754H128.486V214.541H127.082V205.336H130.509ZM130.216 206.38C132.044 206.38 132.86 206.87 132.86 208.11C132.86 209.351 132.044 209.71 130.216 209.71H128.486V206.445L130.216 206.38Z" fill="#4B3670"></path><path d="M281.454 82.7914C285.926 68.624 292.357 52.5633 296.796 38.3633C298.366 32.7061 303.704 28.9381 309.56 29.3536H335.675C333.301 33.2798 332.163 37.8297 332.411 42.4111V121.441H307.569V50.0497L282.923 121.409H267.744L244.175 50.0498V121.409H231.117V42.3784C231.347 37.7987 230.211 33.254 227.853 29.321H253.152C259.034 28.836 264.421 32.629 265.948 38.3307L281.454 82.7914Z" fill="#4B3670"></path><path d="M797.681 52.27V98.9504C797.4 101.751 797.933 104.573 799.216 107.079C800.86 108.65 803.133 109.384 805.385 109.07H822.132C824.351 109.07 825.755 108.548 826.31 107.47C827.177 104.876 827.521 102.136 827.322 99.4074V68.657C827.392 65.1796 827.239 61.7015 826.865 58.2437C826.562 56.1585 825.911 54.1392 824.939 52.2699H848.801V121.409C848.801 130.092 848.801 139.755 840.934 144.456C839.379 145.383 837.642 145.962 835.842 146.153C833.981 146.349 829.64 146.61 822.784 146.61H780.348L778.095 131.3C779.796 132.471 781.718 133.281 783.743 133.683C786.863 134.162 790.021 134.358 793.177 134.271H820.859C823.568 134.271 825.298 133.716 826.082 132.606C827.131 130.366 827.559 127.886 827.322 125.424V117.165C826.491 118.659 825.162 119.814 823.568 120.43C821.25 121.118 818.834 121.416 816.419 121.311H796.833C793.369 121.459 789.905 121.029 786.583 120.038C781.713 117.512 778.272 112.892 777.247 107.503C776.532 103.409 776.236 99.2523 776.365 95.0983V65.2294C776.656 60.7504 775.849 56.2683 774.015 52.1719L797.681 52.27Z" fill="#4B3670"></path><path d="M453.551 121.442V65.2943H437.425C435.346 65.2318 433.267 65.3962 431.223 65.784C429.689 66.2361 428.25 66.9664 426.979 67.9385L429.036 52.2695H500.852L502.909 67.9385C501.628 66.9629 500.178 66.2324 498.632 65.784C496.589 65.3931 494.509 65.2287 492.43 65.2943H476.337V108.384C476.071 112.967 477.21 117.523 479.601 121.442H453.551Z" fill="#4B3670"></path><path d="M953.392 121.409V64.772C953.637 60.5182 952.992 56.2601 951.499 52.2695H1005.65L1007.81 68.3955C1006.55 67.4108 1005.11 66.6792 1003.57 66.241C1001.52 65.8518 999.442 65.6876 997.363 65.7514H975.035V108.384C974.762 112.968 975.902 117.525 978.299 121.442L953.392 121.409Z" fill="#4B3670"></path><path d="M997.918 109.69H1002.46V121.409H1004.25V109.69H1008.76V108.091H997.918V109.69ZM1024.03 121.409V108.091H1021.45L1017.67 115.468L1013.85 108.091H1011.27V121.409H1013.13C1013.13 117.688 1013.13 113.967 1013.13 110.245L1017.01 117.525H1018.55L1022.43 110.213C1022.43 113.934 1022.43 117.688 1022.43 121.409H1024.03Z" fill="#4B3670"></path><path d="M759.423 121.409V68.6895C759.345 65.2021 759.487 61.7131 759.847 58.2435C760.169 56.1629 760.819 54.1466 761.773 52.2697H705.006C702.035 52.1878 699.067 52.5285 696.192 53.2817C694.081 53.9479 692.18 55.1517 690.675 56.7746C689.004 58.5278 687.822 60.689 687.248 63.0422C686.56 66.9197 686.275 70.8579 686.399 74.794V104.63C686.494 107.203 686.384 109.779 686.072 112.334C685.605 115.656 684.252 118.791 682.155 121.409H700.762C705.724 121.409 708.27 116.415 708.335 111.616V73.2596C708.335 67.2205 710.163 64.609 714.505 64.609H737.813V105.022C737.89 108.509 737.748 111.998 737.388 115.468C737.061 117.537 736.411 119.542 735.462 121.409L759.423 121.409Z" fill="#4B3670"></path><path d="M420.386 93.1726H375.076V84.9464C375.022 83.7758 375.482 82.6397 376.335 81.8365C377.189 81.0333 378.35 80.643 379.516 80.768H399.102V71.7583C399.102 67.1882 399.102 64.5441 394.662 64.5441H373.313C368.09 64.5441 367.894 66.2742 367.894 71.889V100.452C367.587 102.885 368.179 105.346 369.559 107.373C371.661 108.719 374.164 109.295 376.643 109.005H407.557C411.903 109.25 416.227 108.218 419.994 106.034L417.937 121.344H367.568C352.911 121.344 346.48 116.056 346.48 99.7013V74.0108C346.48 58.7988 352.128 52.3027 365.544 52.3027H402.497C416.37 52.3027 420.386 58.8315 420.386 73.6191V93.1726Z" fill="#4B3670"></path><path d="M512.832 52.2695H562.647C565.624 52.1466 568.604 52.4545 571.493 53.1835C573.638 53.9649 575.556 55.266 577.075 56.9702C580.626 60.7235 582.519 65.7458 582.331 70.909V121.409H526.477C523.737 121.485 520.997 121.233 518.317 120.658C516.41 120.125 514.654 119.152 513.191 117.818C511.575 116.256 510.374 114.315 509.699 112.171C508.9 109.358 508.526 106.443 508.589 103.52V91.6051C508.34 87.5611 509.702 83.583 512.375 80.539C515.381 77.8519 519.359 76.5181 523.376 76.8502H548.904C550.082 76.7585 551.244 77.1659 552.107 77.9729C552.97 78.7799 553.454 79.9123 553.441 81.0938V89.1895H536.924C534.997 88.9672 533.071 89.6133 531.668 90.9523C530.492 92.9143 529.987 95.2065 530.232 97.481V101.659C529.986 103.707 530.497 105.773 531.668 107.47C533.077 108.797 535.002 109.431 536.924 109.2H560.623C560.623 95.8162 560.623 82.7914 560.623 69.4074C560.623 66.4369 558.73 64.7394 555.335 64.7394H523.083C518.8 64.5782 514.561 65.6548 510.874 67.8406L512.832 52.2695Z" fill="#4B3670"></path><path d="M865.123 144.325V52.2695H920.193C932.173 52.2695 938.539 58.3739 938.539 71.1703V103.39C938.539 112.922 933.773 121.474 923.229 121.409H899.66C898.1 121.483 896.581 120.9 895.47 119.802C894.36 118.704 893.76 117.192 893.817 115.631V109.102H910.498C916.341 109.102 917.026 105.642 917.026 100.55V72.3454C917.026 67.4815 916.569 64.6415 910.955 64.6415H886.766C886.766 85.7293 886.766 109.657 886.766 130.745C886.456 135.405 887.262 140.071 889.116 144.357L865.123 144.325Z" fill="#4B3670"></path><path d="M670.142 121.409V68.6895C670.064 65.2021 670.206 61.7131 670.567 58.2435C670.888 56.1629 671.538 54.1466 672.493 52.2697H616.411C613.44 52.1878 610.472 52.5285 607.597 53.2817C605.492 53.9599 603.594 55.1618 602.08 56.7746C600.409 58.5278 599.227 60.689 598.653 63.0422C597.98 66.9214 597.707 70.859 597.837 74.794V104.63C597.915 107.203 597.805 109.778 597.51 112.334C597.019 115.655 595.656 118.786 593.56 121.409H611.841C616.803 121.409 619.349 116.415 619.414 111.616V73.2596C619.414 67.2205 621.242 64.609 625.584 64.609H648.892V105.022C648.969 108.509 648.827 111.998 648.467 115.468C648.14 117.537 647.49 119.542 646.541 121.409L670.142 121.409Z" fill="#4B3670"></path><path d="M231.281 170.962H235.002V161.332H239.833C240.577 161.358 241.321 161.303 242.053 161.169C242.819 161.035 243.565 160.805 244.273 160.483C245.03 160.136 245.708 159.635 246.264 159.014C246.664 158.583 247.005 158.1 247.276 157.578C247.552 157.025 247.771 156.445 247.929 155.848C248.085 155.207 248.162 154.549 248.157 153.889C248.166 152.907 247.989 151.933 247.635 151.017C247.292 150.207 246.806 149.466 246.199 148.829C245.59 148.21 244.87 147.712 244.077 147.36C243.379 147.014 242.629 146.783 241.857 146.675C241.167 146.559 240.468 146.505 239.768 146.512H231.281L231.281 170.962ZM235.002 149.841H239.866H240.976C241.353 149.909 241.724 150.007 242.086 150.135C242.494 150.295 242.87 150.528 243.195 150.821C243.642 151.138 243.983 151.581 244.175 152.094C244.372 152.592 244.472 153.125 244.469 153.661C244.475 154.24 244.375 154.815 244.175 155.358C243.99 155.86 243.701 156.316 243.326 156.697C242.986 157.037 242.588 157.313 242.151 157.513C241.768 157.686 241.361 157.796 240.943 157.839H239.866H235.002V149.678V149.841ZM252.336 170.962H256.155L257.95 165.576H267.548L269.343 170.962H273.162L264.381 146.512H261.117L252.336 170.962ZM258.864 162.409L262.586 151.441L266.242 162.442L258.864 162.409ZM295.915 153.269C295.807 152.537 295.598 151.823 295.295 151.147C295.053 150.543 294.735 149.973 294.348 149.45C294.003 149.025 293.632 148.622 293.238 148.242C292.677 147.738 292.051 147.31 291.378 146.969C290.747 146.654 290.077 146.423 289.386 146.283C288.712 146.128 288.022 146.052 287.33 146.055C286.605 146.051 285.883 146.128 285.175 146.283C284.439 146.457 283.726 146.72 283.053 147.067C282.33 147.454 281.669 147.95 281.095 148.536C280.569 149.071 280.119 149.675 279.756 150.331C279.437 150.91 279.185 151.523 279.006 152.159C278.84 152.735 278.73 153.325 278.679 153.922C278.649 154.444 278.649 154.967 278.679 155.489V162.018C278.679 162.344 278.679 162.768 278.679 163.258C278.738 163.83 278.836 164.397 278.973 164.956C279.14 165.622 279.381 166.268 279.691 166.882C280.051 167.569 280.501 168.206 281.03 168.775C281.528 169.309 282.1 169.771 282.727 170.146C283.402 170.553 284.126 170.871 284.882 171.093C285.689 171.32 286.524 171.43 287.362 171.419C288.474 171.421 289.578 171.233 290.627 170.864C291.573 170.499 292.446 169.969 293.206 169.297C294.125 168.471 294.84 167.443 295.295 166.294C295.594 165.628 295.802 164.926 295.915 164.205H292.194C292.081 164.626 291.917 165.032 291.704 165.412C291.432 165.847 291.115 166.252 290.757 166.62C290.192 167.127 289.524 167.506 288.799 167.73C286.865 168.315 284.769 167.684 283.478 166.131C283.137 165.712 282.872 165.237 282.694 164.727C282.524 164.253 282.414 163.759 282.368 163.258C282.336 162.791 282.336 162.322 282.368 161.854V155.619C282.333 155.087 282.333 154.552 282.368 154.02C282.422 153.506 282.542 153.001 282.727 152.518C282.931 152.034 283.206 151.583 283.543 151.18C284.009 150.668 284.576 150.256 285.208 149.972C285.866 149.682 286.578 149.537 287.297 149.548C287.794 149.542 288.288 149.608 288.766 149.743C289.188 149.882 289.594 150.068 289.974 150.298C290.313 150.504 290.621 150.757 290.888 151.049C291.181 151.352 291.434 151.692 291.639 152.061C291.871 152.436 292.047 152.843 292.161 153.269H295.915ZM301.497 146.512V154.216C301.497 154.705 301.497 155.228 301.497 155.783C301.547 156.356 301.646 156.923 301.791 157.48C301.948 158.067 302.19 158.628 302.509 159.145C303.17 160.178 304.176 160.942 305.349 161.299C305.897 161.499 306.467 161.63 307.047 161.691C307.62 161.776 308.198 161.831 308.777 161.854H314.555V170.929H318.243V146.479H314.555V158.492H309.43C308.878 158.482 308.33 158.406 307.797 158.263C307.292 158.147 306.822 157.912 306.426 157.578C306.098 157.254 305.842 156.865 305.676 156.435C305.542 156.022 305.454 155.595 305.414 155.162C305.414 154.738 305.414 154.346 305.414 153.987V146.512L301.497 146.512ZM327.612 146.512V170.962H343.248V167.698H331.334V160.516H341.518V157.251H331.334V150.037H343.248V146.773L327.612 146.512ZM358.754 149.776H365.511V146.512H348.471V149.776H355V170.897H358.689V149.776H358.754ZM371.812 146.512V170.962H375.5V160.418H385.522V170.962H389.211V146.512H385.522V157.056H375.598V146.512H371.812ZM395.315 170.962H399.102L400.93 165.576H410.494L412.322 170.962H416.109L407.361 146.512H404.096L395.348 170.962H395.315ZM401.844 162.409L405.533 151.441L409.189 162.442L401.844 162.409ZM440.461 146.512H431.55C430.887 146.465 430.221 146.465 429.558 146.512C428.83 146.62 428.117 146.818 427.437 147.099C426.686 147.433 426.001 147.898 425.413 148.47C424.771 149.079 424.26 149.812 423.911 150.625C423.568 151.532 423.402 152.496 423.421 153.465C423.41 154.106 423.498 154.745 423.683 155.358C423.892 156.004 424.225 156.602 424.662 157.121C425.035 157.568 425.476 157.953 425.968 158.264C426.509 158.626 427.104 158.901 427.73 159.08C427.282 159.233 426.854 159.441 426.457 159.7C425.583 160.261 424.98 161.159 424.792 162.181C424.617 162.811 424.497 163.456 424.433 164.107L424.205 165.772C424.236 166.054 424.236 166.338 424.205 166.62C424.221 166.783 424.221 166.947 424.205 167.11V167.306C424.054 167.494 423.849 167.63 423.617 167.698H422.997H422.279L422.671 170.962H423.976C424.356 170.994 424.739 170.994 425.119 170.962C425.503 170.875 425.875 170.744 426.229 170.57C426.582 170.345 426.901 170.07 427.175 169.754C427.394 169.442 427.57 169.101 427.698 168.742C427.826 168.392 427.924 168.032 427.991 167.665C427.991 167.273 427.991 166.914 428.155 166.588L428.481 163.552C428.481 163.258 428.481 162.964 428.644 162.605C428.738 162.25 428.88 161.909 429.069 161.593C429.301 161.258 429.616 160.989 429.983 160.81C430.473 160.581 431.009 160.47 431.55 160.483H436.936V170.832H440.657V146.381L440.461 146.512ZM436.74 149.776V157.186H431.517H430.44L429.46 156.925C429.2 156.814 428.949 156.683 428.71 156.533C428.465 156.396 428.244 156.22 428.057 156.011C427.748 155.704 427.504 155.337 427.339 154.934C427.194 154.491 427.117 154.029 427.11 153.563C427.099 153.085 427.176 152.609 427.339 152.159C427.507 151.703 427.774 151.291 428.122 150.951C428.408 150.67 428.739 150.438 429.101 150.266C429.434 150.113 429.785 150.003 430.146 149.939H431.223L436.74 149.776ZM464.324 146.512V170.962H468.045V160.418H478.034V170.962H481.723V146.512H478.034V157.056H468.045V146.512H464.324ZM491.124 146.512V170.962H507.152V167.698H495.074V160.516H505.259V157.251H495.074V150.037H507.152V146.773L491.124 146.512ZM514.236 146.512V170.962H523.474C524.054 170.953 524.633 170.899 525.204 170.799C525.87 170.689 526.517 170.491 527.13 170.211C528.52 169.614 529.67 168.568 530.395 167.241C530.707 166.689 530.938 166.096 531.08 165.478C531.181 164.917 531.236 164.35 531.243 163.78C531.249 163.071 531.138 162.365 530.917 161.691C530.727 161.053 530.441 160.447 530.068 159.896C529.723 159.352 529.294 158.867 528.795 158.459C528.199 157.937 527.513 157.528 526.771 157.252C526.107 157.001 525.417 156.826 524.715 156.729H522.886H518.055V149.939H530.003V146.675L514.236 146.512ZM517.957 159.994H523.409C523.838 159.995 524.266 160.05 524.682 160.157C525.031 160.238 525.363 160.382 525.661 160.581C525.924 160.722 526.165 160.897 526.38 161.104C526.708 161.471 526.973 161.89 527.163 162.344C527.351 162.8 527.451 163.287 527.457 163.78C527.457 164.274 527.357 164.763 527.163 165.217C526.981 165.685 526.715 166.116 526.38 166.49C526.165 166.696 525.924 166.872 525.661 167.012C525.356 167.198 525.027 167.341 524.682 167.437C524.266 167.543 523.838 167.598 523.409 167.6H517.957V159.994ZM536.532 170.962H540.351L542.179 165.576H551.744L553.539 170.962H557.358L548.61 146.512H545.346L536.564 170.962H536.532ZM543.224 162.409L546.912 151.441L550.601 162.442L543.224 162.409ZM563.463 146.512V170.962H567.152V160.418H577.14V170.962H580.862V146.512H577.14V157.056H567.152V146.512H563.463ZM591.308 146.512V170.962H595.29V160.059H599.632C600.173 160.036 600.712 160.148 601.199 160.385C601.571 160.556 601.888 160.827 602.113 161.169C602.305 161.479 602.437 161.822 602.505 162.181C602.585 162.491 602.64 162.808 602.668 163.127L603.125 166.718C603.125 167.077 603.125 167.404 603.288 167.795C603.355 168.162 603.453 168.523 603.582 168.873C603.71 169.232 603.885 169.572 604.104 169.885C604.371 170.209 604.691 170.484 605.051 170.701C605.402 170.879 605.775 171.011 606.161 171.092C606.541 171.124 606.923 171.124 607.303 171.092H608.609L609.001 167.828H608.348H607.728C607.496 167.761 607.291 167.624 607.14 167.436C607.078 167.354 607.024 167.267 606.977 167.175C606.964 167.023 606.964 166.87 606.977 166.718C606.951 166.447 606.951 166.173 606.977 165.902L606.585 163.16C606.585 162.801 606.585 162.409 606.389 161.985C606.322 161.576 606.224 161.172 606.096 160.777C605.957 160.386 605.771 160.013 605.541 159.667L605.083 159.145C604.852 158.945 604.6 158.77 604.333 158.623C604.02 158.468 603.692 158.347 603.353 158.264C603.581 158.205 603.801 158.117 604.006 158.002C604.242 157.904 604.461 157.772 604.659 157.611C604.856 157.473 605.032 157.308 605.181 157.121C605.338 156.908 605.47 156.678 605.573 156.436C605.664 156.179 605.741 155.918 605.802 155.652C605.868 155.416 605.923 155.176 605.965 154.934C605.975 154.76 605.975 154.586 605.965 154.412L606.161 152.355C606.211 151.883 606.287 151.415 606.389 150.951C606.486 150.563 606.677 150.204 606.944 149.907C607.252 149.634 607.643 149.473 608.054 149.45H608.609L608.217 146.185H606.716C606.102 146.211 605.502 146.367 604.953 146.642C604.516 146.87 604.137 147.194 603.843 147.589C603.576 147.965 603.378 148.385 603.256 148.83C603.127 149.279 603.028 149.738 602.962 150.201C602.962 150.658 602.962 151.082 602.799 151.506L602.505 153.955C602.505 154.216 602.505 154.51 602.342 154.804C602.202 155.484 601.757 156.062 601.134 156.37C600.667 156.557 600.167 156.645 599.665 156.632H595.29V146.447L591.308 146.512ZM633.418 155.26C633.445 154.782 633.445 154.302 633.418 153.824C633.364 153.238 633.255 152.659 633.092 152.094C632.889 151.446 632.615 150.821 632.276 150.233C631.896 149.58 631.423 148.986 630.872 148.47C630.366 147.998 629.795 147.602 629.175 147.295C628.496 146.945 627.785 146.661 627.053 146.446C625.588 146.054 624.045 146.054 622.581 146.446C621.848 146.661 621.137 146.945 620.459 147.295C619.839 147.602 619.267 147.998 618.761 148.47C618.21 148.986 617.737 149.58 617.358 150.233C617.018 150.821 616.744 151.446 616.542 152.094C616.379 152.659 616.269 153.238 616.215 153.824C616.188 154.302 616.188 154.782 616.215 155.26V162.148C616.187 162.626 616.187 163.106 616.215 163.584C616.312 164.864 616.703 166.104 617.358 167.208C617.737 167.861 618.21 168.455 618.761 168.971C619.284 169.421 619.853 169.815 620.459 170.146C621.138 170.485 621.849 170.758 622.581 170.962C624.045 171.354 625.588 171.354 627.053 170.962C627.784 170.758 628.495 170.485 629.175 170.146C629.78 169.815 630.349 169.421 630.872 168.971C631.423 168.455 631.896 167.861 632.276 167.208C632.931 166.104 633.322 164.864 633.418 163.584C633.446 163.106 633.446 162.626 633.418 162.148V155.228V155.26ZM629.697 162.409C629.758 162.82 629.758 163.239 629.697 163.65C629.618 164.12 629.487 164.58 629.305 165.021C629.057 165.503 628.75 165.953 628.391 166.359C628.068 166.667 627.706 166.93 627.314 167.143C626.939 167.367 626.531 167.532 626.106 167.632C625.681 167.751 625.241 167.806 624.8 167.795C624.14 167.812 623.484 167.69 622.874 167.436C622.306 167.227 621.793 166.893 621.373 166.457C620.985 166.071 620.655 165.632 620.393 165.151C620.169 164.722 620.014 164.259 619.936 163.78C619.904 163.324 619.904 162.866 619.936 162.409V155.064C619.904 154.608 619.904 154.15 619.936 153.693C620.014 153.215 620.169 152.752 620.393 152.322C620.647 151.837 620.978 151.396 621.373 151.017C621.8 150.581 622.311 150.237 622.874 150.005C623.489 149.767 624.142 149.645 624.8 149.646C625.24 149.652 625.678 149.706 626.106 149.809C626.531 149.909 626.939 150.074 627.314 150.298C627.707 150.522 628.069 150.797 628.391 151.114C628.757 151.515 629.065 151.966 629.305 152.453C629.495 152.891 629.627 153.352 629.697 153.824C629.759 154.235 629.759 154.653 629.697 155.064V162.409ZM641.971 146.512V170.962H651.078C651.859 170.968 652.637 170.88 653.396 170.701C654.01 170.595 654.604 170.397 655.159 170.113C655.59 169.912 655.996 169.66 656.367 169.362C657.104 168.839 657.69 168.129 658.064 167.306C658.326 166.811 658.524 166.284 658.652 165.739C658.78 165.182 658.845 164.613 658.848 164.041C658.88 163.618 658.88 163.192 658.848 162.768C658.773 162.322 658.653 161.884 658.489 161.463C658.309 161.051 658.09 160.657 657.836 160.287C657.657 160.035 657.448 159.805 657.215 159.602C656.948 159.351 656.652 159.132 656.334 158.949C655.96 158.747 655.566 158.583 655.159 158.459C655.6 158.313 656.017 158.104 656.399 157.839C656.71 157.622 656.995 157.37 657.248 157.088C657.425 156.9 657.578 156.692 657.705 156.468C657.932 156.102 658.107 155.706 658.227 155.293C658.378 154.869 658.487 154.432 658.554 153.987C658.584 153.585 658.584 153.181 658.554 152.779C658.568 152.123 658.457 151.469 658.227 150.853C658.05 150.309 657.798 149.793 657.477 149.319C657.177 148.896 656.814 148.521 656.399 148.209C655.959 147.84 655.463 147.543 654.93 147.328C654.36 147.1 653.77 146.926 653.168 146.806C652.553 146.703 651.931 146.648 651.307 146.642L641.971 146.512ZM645.66 149.776H651.013C651.489 149.788 651.961 149.865 652.417 150.005C652.859 150.162 653.277 150.382 653.657 150.658C654.084 150.973 654.412 151.403 654.604 151.898C654.787 152.354 654.865 152.844 654.833 153.334C654.839 153.788 654.773 154.24 654.637 154.673C654.471 155.084 654.214 155.452 653.886 155.75C653.535 156.13 653.098 156.421 652.613 156.599C652.17 156.743 651.707 156.82 651.242 156.827H645.888V149.776L645.66 149.776ZM645.66 160.157H651.209H651.895C652.23 160.19 652.559 160.267 652.874 160.385C653.24 160.512 653.582 160.7 653.886 160.94C654.124 161.113 654.333 161.322 654.506 161.561C654.716 161.845 654.871 162.166 654.963 162.507C655.099 162.929 655.165 163.37 655.159 163.813C655.169 164.287 655.069 164.756 654.865 165.184C654.683 165.561 654.452 165.912 654.18 166.229L653.527 166.784C653.206 166.979 652.867 167.143 652.515 167.273C652.06 167.411 651.586 167.477 651.111 167.469H645.888V160.092L645.66 160.157ZM684.212 153.204C684.088 152.475 683.88 151.763 683.592 151.082C683.326 150.483 682.998 149.914 682.612 149.384C682.277 148.951 681.905 148.547 681.502 148.177C680.941 147.672 680.315 147.244 679.642 146.903C679.013 146.583 678.343 146.353 677.65 146.218C676.976 146.061 676.286 145.985 675.594 145.989C674.88 145.986 674.169 146.063 673.472 146.218C672.734 146.387 672.021 146.65 671.35 147.001C670.627 147.389 669.966 147.884 669.392 148.47C668.866 149.005 668.416 149.609 668.053 150.266C667.724 150.844 667.461 151.457 667.27 152.094C667.12 152.673 667.01 153.262 666.943 153.857C666.912 154.378 666.912 154.902 666.943 155.424V161.952C666.915 162.365 666.915 162.78 666.943 163.193C666.986 163.767 667.084 164.335 667.237 164.89C667.58 166.32 668.289 167.636 669.294 168.71C669.792 169.244 670.364 169.705 670.991 170.081C671.666 170.487 672.39 170.806 673.146 171.027C673.942 171.252 674.766 171.362 675.594 171.354C676.706 171.36 677.811 171.172 678.858 170.799C679.808 170.442 680.683 169.911 681.437 169.232C682.354 168.396 683.078 167.372 683.559 166.229C683.843 165.557 684.051 164.857 684.179 164.139H680.425C680.311 164.555 680.158 164.96 679.968 165.347C679.694 165.79 679.365 166.196 678.989 166.555C678.744 166.795 678.47 167.003 678.173 167.175C677.824 167.383 677.451 167.548 677.063 167.665C676.575 167.805 676.069 167.871 675.561 167.861C674.815 167.865 674.078 167.697 673.407 167.371C672.755 167.076 672.184 166.629 671.742 166.065C671.403 165.639 671.128 165.167 670.926 164.662C670.77 164.184 670.661 163.692 670.599 163.193C670.599 162.703 670.599 162.246 670.599 161.789V155.619C670.565 155.087 670.565 154.552 670.599 154.02C670.669 153.509 670.789 153.006 670.958 152.518C671.174 152.033 671.46 151.582 671.807 151.18C672.268 150.661 672.836 150.249 673.472 149.972C674.119 149.685 674.821 149.54 675.529 149.548C676.036 149.542 676.541 149.608 677.03 149.743C677.442 149.882 677.837 150.068 678.205 150.298C678.554 150.504 678.873 150.757 679.152 151.049C679.435 151.353 679.677 151.694 679.87 152.061C680.102 152.436 680.278 152.843 680.392 153.269L684.212 153.204ZM692.046 146.446V170.897H695.735V159.994H700.077C700.618 159.971 701.156 160.083 701.643 160.32C702.006 160.491 702.312 160.763 702.525 161.103C702.727 161.412 702.87 161.755 702.949 162.115C703.03 162.426 703.084 162.743 703.112 163.062L703.569 166.653C703.569 167.012 703.569 167.338 703.733 167.73C703.896 168.122 703.733 168.448 703.994 168.807C704.133 169.168 704.32 169.508 704.549 169.819C704.816 170.143 705.136 170.419 705.495 170.635C705.847 170.814 706.22 170.946 706.605 171.027C706.975 171.057 707.346 171.057 707.715 171.027H709.054L709.445 167.763H708.956H708.335C708.091 167.704 707.873 167.566 707.715 167.371C707.709 167.284 707.709 167.197 707.715 167.11C707.702 166.958 707.702 166.805 707.715 166.653C707.715 166.457 707.715 166.163 707.552 165.837L707.193 163.095L706.997 161.92C706.934 161.506 706.825 161.101 706.671 160.712C706.556 160.317 706.38 159.942 706.148 159.602L705.659 159.08C705.444 158.873 705.203 158.698 704.941 158.557C704.628 158.402 704.3 158.282 703.961 158.198C704.188 158.135 704.407 158.047 704.614 157.937C704.845 157.831 705.064 157.7 705.267 157.545C705.456 157.399 705.631 157.235 705.789 157.056C705.936 156.842 706.056 156.612 706.148 156.37C706.339 155.885 706.481 155.382 706.573 154.869C706.573 154.64 706.573 154.477 706.573 154.346L706.769 152.29C706.818 151.818 706.895 151.349 706.997 150.886C707.094 150.498 707.285 150.139 707.552 149.842C707.86 149.569 708.251 149.408 708.662 149.384H709.217L708.825 146.12H707.324C706.71 146.146 706.11 146.302 705.561 146.577C705.116 146.793 704.735 147.119 704.451 147.524C704.184 147.9 703.985 148.32 703.864 148.764C703.719 149.21 703.621 149.669 703.57 150.135C703.57 150.592 703.57 151.017 703.407 151.441L703.113 153.889C703.113 154.151 703.113 154.444 702.95 154.738C702.873 155.053 702.74 155.351 702.558 155.62C702.349 155.914 702.068 156.15 701.742 156.305C701.274 156.488 700.775 156.577 700.273 156.566H695.931V146.381L692.046 146.446ZM713.95 170.897H717.769L719.565 165.51H729.162L730.957 170.897H734.777L725.996 146.446H722.731L713.95 170.897ZM720.642 162.344L724.331 151.376L728.02 162.377L720.642 162.344ZM759.227 146.446H750.348C749.685 146.399 749.019 146.399 748.357 146.446C747.628 146.555 746.915 146.752 746.235 147.034C745.468 147.356 744.77 147.821 744.178 148.405C743.537 149.008 743.036 149.743 742.709 150.56C742.355 151.464 742.178 152.428 742.187 153.4C742.186 154.042 742.285 154.681 742.481 155.293C742.69 155.938 743.023 156.537 743.46 157.056C743.825 157.51 744.267 157.896 744.766 158.198C745.303 158.567 745.899 158.843 746.528 159.014C746.072 159.174 745.635 159.382 745.223 159.635C744.859 159.897 744.53 160.204 744.243 160.549C743.925 161.027 743.693 161.557 743.558 162.115C743.398 162.749 743.278 163.393 743.199 164.041L743.003 165.706C742.964 165.992 742.91 166.275 742.84 166.555C742.859 166.718 742.859 166.882 742.84 167.045V167.241C742.689 167.428 742.484 167.565 742.252 167.632H741.632H741.142L741.501 170.897H742.84C743.209 170.928 743.581 170.928 743.95 170.897C744.335 170.815 744.708 170.683 745.06 170.505C745.425 170.296 745.746 170.019 746.006 169.689C746.247 169.385 746.435 169.043 746.561 168.677C746.69 168.327 746.788 167.966 746.855 167.6C746.855 167.208 746.855 166.849 746.855 166.522L747.214 163.487C747.214 163.193 747.214 162.899 747.377 162.54C747.471 162.184 747.613 161.844 747.802 161.528C748.014 161.188 748.32 160.916 748.683 160.745C749.173 160.516 749.709 160.404 750.25 160.418H755.669V170.766H759.358V146.316L759.227 146.446ZM755.538 149.711V157.121H750.315H749.238L748.226 156.86L747.475 156.468C747.24 156.33 747.031 156.154 746.855 155.946C746.546 155.638 746.302 155.272 746.137 154.869C745.977 154.43 745.899 153.965 745.908 153.497C745.897 153.02 745.974 152.544 746.137 152.094C746.305 151.638 746.572 151.225 746.92 150.886C747.202 150.599 747.534 150.367 747.899 150.201C748.23 150.043 748.582 149.933 748.944 149.874H750.021L755.538 149.711ZM231.281 189.797V214.378H235.002V203.508H239.474C240.012 203.485 240.548 203.585 241.041 203.801C241.4 203.994 241.703 204.275 241.922 204.618C242.111 204.933 242.254 205.274 242.347 205.629C242.347 205.956 242.347 206.282 242.347 206.576L242.804 210.167C242.804 210.526 242.804 210.852 242.967 211.244C243.007 211.613 243.095 211.975 243.228 212.321C243.361 212.675 243.548 213.005 243.783 213.301C244.024 213.649 244.35 213.93 244.73 214.117C245.08 214.306 245.453 214.449 245.84 214.541C246.209 214.573 246.58 214.573 246.949 214.541H248.288L248.647 211.277H248.157H247.537C247.297 211.21 247.089 211.06 246.95 210.852C246.95 210.852 246.95 210.852 246.95 210.624C246.935 210.472 246.935 210.319 246.95 210.167C246.95 209.938 246.95 209.677 246.95 209.318L246.558 206.609C246.558 206.25 246.558 205.858 246.395 205.434C246.231 205.009 246.199 204.617 246.068 204.226C245.943 203.829 245.756 203.454 245.513 203.116C245.39 202.918 245.235 202.742 245.056 202.594C244.842 202.388 244.6 202.212 244.338 202.071C244.027 201.913 243.698 201.792 243.359 201.712L243.979 201.451C244.214 201.352 244.434 201.22 244.632 201.059C244.837 200.919 245.014 200.742 245.154 200.537C245.322 200.344 245.454 200.123 245.546 199.884C245.647 199.628 245.735 199.367 245.807 199.101C245.82 198.862 245.82 198.622 245.807 198.383C245.817 198.209 245.817 198.034 245.807 197.86L246.036 195.804C246.072 195.319 246.148 194.839 246.264 194.367C246.349 193.984 246.541 193.633 246.819 193.355C247.106 193.07 247.492 192.906 247.896 192.898H248.451L248.092 189.634H246.59C245.967 189.66 245.355 189.816 244.795 190.091C244.359 190.307 243.988 190.633 243.718 191.038C243.425 191.402 243.213 191.825 243.098 192.278C242.965 192.727 242.867 193.185 242.804 193.649C242.804 194.106 242.804 194.531 242.804 194.955L242.477 197.403C242.502 197.686 242.502 197.97 242.477 198.252C242.403 198.568 242.27 198.866 242.086 199.133C241.874 199.426 241.594 199.661 241.27 199.819C240.814 200.005 240.325 200.094 239.833 200.08H235.492V189.863L231.281 189.797ZM256.188 214.247H259.876V204.585H264.708C265.446 204.648 266.189 204.648 266.927 204.585C267.695 204.456 268.441 204.226 269.147 203.899C269.902 203.53 270.586 203.033 271.171 202.43C271.542 201.983 271.87 201.502 272.15 200.994C272.441 200.436 272.66 199.844 272.803 199.231C272.974 198.592 273.062 197.934 273.064 197.273C273.057 196.289 272.869 195.315 272.51 194.4C272.189 193.596 271.712 192.863 271.106 192.245C270.497 191.626 269.778 191.128 268.984 190.776C268.27 190.434 267.512 190.193 266.732 190.058C266.047 190.015 265.36 190.015 264.675 190.058H256.188V214.378L256.188 214.247ZM259.876 193.16H264.74H265.85C266.244 193.196 266.63 193.295 266.993 193.453C267.396 193.609 267.771 193.829 268.103 194.106C268.534 194.452 268.871 194.901 269.082 195.412C269.269 195.913 269.358 196.445 269.343 196.979C269.349 197.558 269.25 198.133 269.049 198.676C268.865 199.178 268.576 199.634 268.201 200.015C267.867 200.347 267.481 200.623 267.058 200.831C266.668 200.981 266.263 201.09 265.85 201.157H264.74H259.877V192.996L259.876 193.16ZM279.854 189.895V214.378H295.458V211.114H283.543V203.899H293.761V200.635H283.543V193.16H295.458V189.895H279.854ZM319.614 211.016V189.895H306.883V194.172C306.883 194.89 306.883 195.673 306.883 196.522C306.883 197.371 306.883 198.219 306.655 199.101C306.426 199.982 306.492 200.766 306.361 201.549C306.231 202.332 306.165 203.051 306.035 203.638C305.867 204.553 305.649 205.457 305.382 206.348C305.122 207.159 304.817 207.954 304.468 208.731C304.109 209.514 303.717 210.232 303.293 210.983H301.105V219.536H304.598V214.378H319.451V219.568H322.944V211.048L319.614 211.016ZM310.115 193.257H315.893V211.016H306.981C306.981 210.689 307.308 210.33 307.438 210.004C307.569 209.677 307.732 209.351 307.863 209.024C308.087 208.48 308.284 207.924 308.45 207.36C308.614 206.772 308.777 206.217 308.907 205.629C309.038 205.042 309.299 203.867 309.43 203.116C309.56 202.365 309.658 201.549 309.723 200.798C309.789 200.048 309.723 199.264 309.723 198.481C309.723 197.697 309.723 196.848 309.723 195.934V193.258L310.115 193.257ZM329.473 189.993V214.378H333.194V211.603L343.836 197.991V214.313H347.525V189.863H343.934V192.67L333.292 206.282V189.96L329.473 189.993ZM364.271 193.257H371.028V189.993H353.988V193.257H360.517V214.378H364.206V193.16L364.271 193.257ZM377.328 189.993V214.378H381.05V203.834H391.039V214.378H394.728V189.928H391.039V200.504H381.05V189.928L377.328 189.993ZM400.832 214.443H404.619L406.447 209.09H416.011L417.839 214.443H421.626L412.877 189.993H409.613L400.962 214.378L400.832 214.443ZM407.361 205.891L411.082 194.922L414.738 205.923L407.361 205.891Z" fill="#4B3670"></path><path d="M445.88 189.798H436.968C436.316 189.751 435.662 189.751 435.01 189.798C434.277 189.886 433.562 190.084 432.888 190.385C432.121 190.707 431.423 191.172 430.831 191.756C430.177 192.347 429.673 193.086 429.362 193.911C428.992 194.811 428.815 195.778 428.84 196.751C428.847 197.39 428.935 198.027 429.101 198.644C429.31 199.297 429.655 199.898 430.113 200.407C430.478 200.861 430.92 201.248 431.419 201.549C431.953 201.924 432.55 202.201 433.182 202.366C432.72 202.512 432.281 202.72 431.876 202.986C431.505 203.239 431.175 203.547 430.897 203.9C430.585 204.37 430.353 204.888 430.211 205.434C430.054 206.08 429.934 206.733 429.852 207.393L429.656 209.025C429.656 209.384 429.656 209.678 429.493 209.906C429.508 210.058 429.508 210.211 429.493 210.363V210.559C429.354 210.766 429.146 210.917 428.906 210.984H428.253H427.763L428.155 214.248H429.493C429.862 214.279 430.234 214.279 430.603 214.248C430.99 214.155 431.363 214.013 431.713 213.823C432.093 213.637 432.419 213.356 432.66 213.007C432.894 212.712 433.082 212.382 433.215 212.028C433.347 211.668 433.445 211.297 433.508 210.918C433.508 210.559 433.508 210.2 433.508 209.874L433.867 206.838C433.893 206.518 433.947 206.201 434.031 205.891C434.109 205.531 434.253 205.188 434.455 204.879C434.667 204.539 434.973 204.267 435.336 204.096C435.823 203.859 436.362 203.746 436.903 203.769H442.322V214.378H446.011V189.928L445.88 189.798ZM442.191 193.062V200.472H436.936H435.891C435.545 200.409 435.206 200.311 434.879 200.178L434.128 199.819C433.897 199.664 433.679 199.489 433.476 199.297C432.843 198.644 432.512 197.757 432.562 196.849C432.536 196.359 432.614 195.87 432.79 195.412C433.111 194.577 433.743 193.899 434.553 193.519C434.885 193.372 435.237 193.273 435.597 193.225H436.675L442.191 193.062ZM486.979 198.481C486.979 198.089 486.979 197.6 486.979 197.045C486.9 196.46 486.78 195.882 486.62 195.314C486.411 194.658 486.138 194.023 485.804 193.421C485.416 192.774 484.944 192.181 484.4 191.658C483.884 191.208 483.314 190.824 482.702 190.516C482.033 190.147 481.32 189.862 480.581 189.667C479.116 189.275 477.573 189.275 476.108 189.667C475.379 189.862 474.677 190.147 474.019 190.516C473.403 190.816 472.831 191.2 472.322 191.658C471.768 192.181 471.285 192.774 470.885 193.421C470.547 194.018 470.284 194.653 470.102 195.314C469.926 195.878 469.806 196.458 469.743 197.045C469.716 197.523 469.716 198.003 469.743 198.481V205.401C469.716 205.88 469.716 206.359 469.743 206.838C469.806 207.425 469.926 208.004 470.102 208.568C470.284 209.229 470.547 209.865 470.885 210.461C471.285 211.109 471.768 211.701 472.322 212.224C472.831 212.682 473.403 213.067 474.019 213.366C474.684 213.722 475.384 214.006 476.108 214.215C477.573 214.607 479.116 214.607 480.581 214.215C481.315 214.006 482.026 213.722 482.702 213.366C483.314 213.059 483.884 212.675 484.4 212.224C484.944 211.701 485.416 211.108 485.804 210.461C486.138 209.859 486.411 209.225 486.62 208.568C486.78 208 486.9 207.422 486.979 206.838C486.979 206.283 486.979 205.793 486.979 205.401V198.481ZM483.29 205.597C483.321 206.01 483.321 206.425 483.29 206.838C483.209 207.311 483.066 207.772 482.865 208.209C482.645 208.707 482.336 209.161 481.951 209.547C481.007 210.49 479.727 211.018 478.393 211.016C477.724 211.02 477.059 210.898 476.435 210.657C475.869 210.429 475.357 210.084 474.933 209.645C474.539 209.277 474.208 208.847 473.954 208.372C473.738 207.927 473.584 207.455 473.497 206.968C473.465 206.512 473.465 206.054 473.497 205.597V198.383C473.465 197.927 473.465 197.468 473.497 197.012C473.584 196.525 473.738 196.053 473.954 195.608C474.208 195.133 474.539 194.703 474.933 194.335C475.348 193.886 475.862 193.54 476.435 193.323C477.059 193.082 477.724 192.96 478.393 192.964C479.727 192.966 481.005 193.494 481.951 194.433C482.336 194.82 482.645 195.273 482.865 195.772C483.066 196.208 483.209 196.669 483.29 197.143C483.321 197.556 483.321 197.97 483.29 198.383V205.695V205.597ZM495.531 214.15H499.22V204.585H504.051C504.79 204.648 505.533 204.648 506.271 204.585C507.038 204.457 507.785 204.226 508.491 203.9C509.245 203.531 509.93 203.034 510.515 202.431C510.886 201.984 511.213 201.503 511.494 200.994C511.784 200.436 512.004 199.844 512.147 199.232C512.318 198.593 512.406 197.934 512.408 197.273C512.4 196.29 512.212 195.316 511.853 194.4C511.533 193.596 511.055 192.864 510.449 192.246C509.841 191.627 509.121 191.129 508.328 190.777C507.613 190.435 506.855 190.193 506.075 190.059C505.39 190.016 504.703 190.016 504.019 190.059H495.531V214.378L495.531 214.15ZM499.22 193.062H504.084H505.194C505.588 193.098 505.974 193.197 506.336 193.356C506.739 193.511 507.114 193.732 507.446 194.009C507.878 194.354 508.215 194.803 508.425 195.314C508.597 195.819 508.685 196.349 508.687 196.881C508.693 197.461 508.593 198.036 508.393 198.579C508.208 199.08 507.919 199.537 507.544 199.917C507.21 200.25 506.824 200.525 506.401 200.733C506.011 200.883 505.607 200.993 505.194 201.06H504.084H499.22V192.899L499.22 193.062ZM519.883 189.798V214.378H523.474V193.16H533.692V189.896L519.883 189.798ZM536.923 214.248H540.71L542.538 208.894H552.103L553.931 214.248H557.717L548.969 189.798H545.705L536.923 214.378V214.248ZM543.452 205.695L547.141 194.727L550.797 205.728L543.452 205.695ZM563.691 189.798V214.378H567.38V203.834H577.369V214.378H581.09V189.928H577.369V200.505H567.38V189.928L563.691 189.798ZM590.851 189.798V214.378H594.54V211.604L605.214 197.991V214.313H608.903V189.863H605.214V192.67L594.54 206.283V189.961L590.851 189.798ZM623.495 203.247H625.616H626.694L627.771 203.541C628.098 203.657 628.406 203.822 628.685 204.03C628.954 204.24 629.186 204.494 629.37 204.781C629.556 205.098 629.699 205.438 629.795 205.793C629.928 206.159 629.994 206.546 629.991 206.936C629.98 207.393 629.891 207.846 629.729 208.274C629.308 209.351 628.456 210.203 627.379 210.624C626.673 210.904 625.918 211.037 625.159 211.016C624.516 211.022 623.877 210.923 623.266 210.722C622.664 210.534 622.109 210.223 621.634 209.808C621.302 209.515 621.016 209.174 620.785 208.796C620.473 208.338 620.241 207.83 620.1 207.295H616.411C616.484 207.781 616.593 208.261 616.737 208.731C616.951 209.297 617.213 209.843 617.521 210.363C617.896 210.972 618.345 211.531 618.859 212.028C619.331 212.502 619.857 212.919 620.426 213.269C621.056 213.664 621.737 213.972 622.45 214.183C623.267 214.414 624.114 214.524 624.963 214.509C626.182 214.518 627.395 214.331 628.554 213.954C630.189 213.48 631.601 212.438 632.537 211.016C632.897 210.457 633.182 209.854 633.386 209.221C633.59 208.499 633.689 207.751 633.679 207.001C633.68 206.35 633.592 205.702 633.418 205.075C633.252 204.543 633.01 204.037 632.7 203.574C632.449 203.201 632.153 202.861 631.819 202.562C631.524 202.309 631.194 202.1 630.84 201.941C630.558 201.794 630.263 201.674 629.958 201.582C630.375 201.427 630.77 201.219 631.133 200.962C631.633 200.631 632.056 200.197 632.374 199.689C632.667 199.213 632.888 198.696 633.027 198.155C633.194 197.482 633.271 196.791 633.255 196.098C633.272 195.478 633.183 194.86 632.994 194.27C632.664 193.259 632.066 192.356 631.264 191.659C630.925 191.328 630.553 191.032 630.154 190.777C629.457 190.347 628.697 190.028 627.902 189.831C626.94 189.596 625.953 189.487 624.964 189.504C623.91 189.5 622.863 189.665 621.863 189.994C620.88 190.373 619.973 190.926 619.186 191.626C618.776 192.002 618.404 192.418 618.076 192.866C617.668 193.387 617.328 193.957 617.064 194.564C616.754 195.251 616.535 195.975 616.411 196.718H620.1C620.156 196.473 620.232 196.233 620.328 196C620.428 195.682 620.582 195.383 620.785 195.119C621.019 194.772 621.293 194.454 621.602 194.172C622.091 193.762 622.657 193.451 623.266 193.258C623.868 193.071 624.497 192.983 625.127 192.997C625.699 192.98 626.271 193.046 626.825 193.193C627.412 193.357 627.958 193.647 628.424 194.042C628.731 194.308 628.986 194.629 629.175 194.988C629.329 195.275 629.439 195.583 629.501 195.902C629.515 196.174 629.515 196.447 629.501 196.718C629.533 196.989 629.533 197.263 629.501 197.535C629.412 197.814 629.303 198.087 629.175 198.351C629.05 198.604 628.885 198.836 628.685 199.036C628.342 199.364 627.944 199.629 627.51 199.82C626.947 200.034 626.35 200.144 625.747 200.146H623.528V203.41L623.495 203.247ZM638.706 214.378H642.493L644.321 209.025H654.049L655.877 214.378H659.664L650.785 189.798H647.52L638.706 214.378ZM645.235 205.826L648.924 194.858L652.58 205.858L645.235 205.826ZM665.474 214.378H681.796V219.569H685.289V211.049H682.188V189.928H678.499V211.049H669.163V189.928H665.474V214.378ZM693.45 189.928V214.378H697.171V211.604L707.813 197.991V214.313H711.535V189.863H707.813V192.67L697.171 206.283V189.961L693.45 189.928ZM738.596 189.928H729.717C729.054 189.881 728.389 189.881 727.726 189.928C726.994 190.021 726.279 190.219 725.604 190.516C724.838 190.838 724.139 191.303 723.548 191.887C722.893 192.477 722.389 193.216 722.078 194.041C721.725 194.946 721.547 195.91 721.556 196.881C721.56 197.524 721.659 198.161 721.85 198.775C722.059 199.42 722.392 200.019 722.829 200.537C723.194 200.992 723.636 201.378 724.135 201.68C724.673 202.049 725.269 202.324 725.898 202.496C725.436 202.642 724.997 202.851 724.592 203.116C724.221 203.369 723.891 203.678 723.613 204.03C723.301 204.5 723.069 205.019 722.927 205.565C722.77 206.21 722.65 206.864 722.568 207.523L722.372 209.155C722.372 209.514 722.372 209.808 722.209 210.037C722.171 210.194 722.116 210.348 722.046 210.494C722.058 210.559 722.058 210.625 722.046 210.69C721.907 210.897 721.699 211.047 721.458 211.114H720.838H720.349L720.708 214.378H722.046C722.415 214.41 722.787 214.41 723.156 214.378C723.543 214.286 723.916 214.143 724.266 213.954C724.646 213.767 724.972 213.486 725.212 213.138C725.459 212.85 725.647 212.518 725.767 212.159C725.9 211.799 725.998 211.427 726.061 211.049C726.061 210.69 726.061 210.331 726.061 210.004L726.42 206.968C726.42 206.675 726.42 206.348 726.42 206.022C726.513 205.666 726.656 205.325 726.845 205.01C727.057 204.669 727.363 204.397 727.726 204.226C728.213 203.989 728.752 203.877 729.293 203.9H734.712V214.378H738.401V189.928H738.596ZM734.907 193.193V200.603H729.782H728.738C728.391 200.54 728.052 200.441 727.726 200.309L726.975 199.95C726.386 199.555 725.921 199 725.637 198.35C725.477 197.911 725.399 197.447 725.408 196.979C725.383 196.49 725.461 196.001 725.637 195.543C726.058 194.323 727.158 193.466 728.444 193.356H729.521L734.907 193.193Z" fill="#4B3670"></path></svg> 